<svg xmlns="http://www.w3.org/2000/svg" xmlns:xlink="http://www.w3.org/1999/xlink" width="1080" zoomAndPan="magnify" viewBox="0 0 810 809.999993" height="1080" preserveAspectRatio="xMidYMid meet" version="1.0"><path fill="#000000" d="M 236.054688 660.375 C 212.875 657.347656 189.097656 644.3125 174.523438 626.640625 C 165.910156 616.199219 157.214844 598.800781 154.496094 586.574219 C 153.308594 581.230469 151.890625 576.582031 151.34375 576.242188 C 150.800781 575.910156 130.78125 575.015625 106.855469 574.261719 C 82.933594 573.503906 61.46875 572.597656 59.160156 572.246094 C 54.332031 571.503906 46.339844 565.007812 44.589844 560.410156 C 43.066406 556.40625 45.671875 494.105469 47.570312 489.164062 C 50.613281 481.230469 62.019531 477.75 68.988281 482.632812 C 75.015625 486.859375 75.664062 491.089844 74.292969 517.375 C 73.441406 533.71875 73.460938 541.890625 74.351562 542.78125 C 75.714844 544.144531 128.089844 546.367188 144.242188 545.742188 L 153.222656 545.398438 L 156.601562 535.605469 C 165.589844 509.554688 180.929688 491.339844 204.027344 479.304688 C 253.738281 453.394531 314.597656 475.015625 336.976562 526.53125 L 341.269531 536.410156 L 418.640625 537.996094 C 480 539.25 496.304688 539.25 497.4375 537.996094 C 498.222656 537.121094 501.273438 518.203125 504.222656 495.953125 C 507.167969 473.699219 511.566406 440.757812 513.992188 422.742188 C 516.421875 404.730469 521.054688 370.34375 524.292969 346.324219 C 527.527344 322.308594 532.203125 287.628906 534.683594 269.261719 C 543.757812 202.050781 544.546875 195.238281 543.417969 194.109375 C 542.792969 193.488281 458.503906 191.238281 356.105469 189.113281 C 253.710938 186.992188 161.507812 184.988281 151.21875 184.660156 C 140.925781 184.335938 131.828125 184.484375 131 184.996094 C 130.109375 185.546875 128.425781 195.734375 126.855469 210.128906 C 125.335938 224.042969 123.394531 235.917969 122.292969 238.050781 C 117.667969 246.996094 103.71875 249.792969 96.027344 243.316406 C 88.082031 236.628906 87.921875 235.039062 91.605469 199.527344 C 93.414062 182.078125 95.492188 165.949219 96.21875 163.691406 C 97.679688 159.15625 104.417969 152.636719 110.785156 149.597656 C 114.484375 147.835938 127.402344 147.90625 239.355469 150.320312 C 307.804688 151.796875 408.300781 153.921875 462.675781 155.050781 C 555.570312 156.972656 561.863281 157.246094 566.84375 159.597656 C 574.566406 163.242188 581.167969 170.164062 582.207031 175.710938 C 582.765625 178.671875 581.277344 193.820312 578.171875 216.816406 C 574.882812 241.183594 573.679688 253.664062 574.542969 254.527344 C 575.269531 255.253906 601.863281 257.226562 635.332031 259.042969 C 682.960938 261.625 695.71875 262.691406 699.28125 264.382812 C 702.761719 266.03125 714.691406 281.101562 753.820312 333.269531 C 781.367188 370 805.113281 402.089844 806.585938 404.585938 C 809.660156 409.804688 809.617188 405.386719 807.472656 491.457031 C 805.621094 565.644531 805.417969 568.296875 801.246094 573.253906 C 799.394531 575.453125 794.683594 578.730469 790.777344 580.535156 C 784.144531 583.59375 782.175781 583.835938 761.269531 584.171875 C 745.238281 584.429688 738.433594 584.992188 737.347656 586.15625 C 736.511719 587.050781 734.578125 591.613281 733.054688 596.292969 C 723.761719 624.820312 697.078125 648.738281 666.375 656.0625 C 655.101562 658.753906 634.570312 658.742188 623.40625 656.0625 C 604.253906 651.433594 585.535156 639.847656 573.375 625.105469 C 564.960938 614.902344 560.40625 606.742188 555.9375 593.867188 C 551.96875 582.441406 552.640625 582.785156 530.085938 580.632812 C 521.964844 579.859375 512.71875 578.449219 509.542969 577.5 C 505.269531 576.226562 483.265625 575.375 425.085938 574.230469 C 381.8125 573.375 346.089844 572.996094 345.707031 573.378906 C 345.316406 573.761719 344.132812 578.324219 343.0625 583.511719 C 336.175781 617 312.746094 644.144531 281.050781 655.363281 C 265.585938 660.839844 251.503906 662.414062 236.054688 660.398438 Z M 768.828125 552.140625 C 770.09375 548.976562 773.074219 440.992188 771.945312 439.167969 C 771.546875 438.523438 738.613281 438.410156 695.285156 438.902344 L 619.320312 439.769531 L 612.902344 435.429688 C 601.734375 427.878906 601.746094 427.953125 602.679688 383.566406 C 603.125 362.375 603.964844 340.425781 604.554688 334.792969 C 605.53125 325.386719 605.980469 324.214844 610.003906 320.527344 C 615.984375 315.042969 622.210938 314.027344 629.644531 317.316406 C 634.257812 319.355469 635.976562 321.042969 637.910156 325.414062 C 640.199219 330.589844 640.289062 333.105469 639.375 365.597656 C 638.835938 384.664062 638.671875 401.054688 639.007812 402.019531 C 639.511719 403.484375 649.21875 403.621094 698.160156 402.851562 C 730.359375 402.34375 757.148438 401.519531 757.6875 401.015625 C 758.398438 400.351562 686.785156 302.925781 682.253906 298.390625 C 681.902344 298.039062 662.6875 296.726562 639.554688 295.476562 C 616.421875 294.222656 591.054688 292.804688 583.183594 292.320312 C 569.914062 291.507812 568.816406 291.621094 568.140625 293.839844 C 567.335938 296.464844 535.453125 531.933594 534.308594 543.703125 L 533.597656 550.996094 L 537.9375 551.746094 C 540.328125 552.160156 544.253906 552.632812 546.664062 552.796875 L 551.042969 553.105469 L 554.417969 541.46875 C 558.789062 526.394531 563.289062 517.351562 571.878906 506.367188 C 589.152344 484.285156 615.902344 471.546875 645 471.546875 C 679.5625 471.546875 709.757812 489.082031 726.84375 519.066406 C 730.609375 525.683594 736.804688 542.449219 736.804688 546.03125 C 736.804688 547.355469 737.371094 549.925781 738.058594 551.734375 C 739.296875 554.996094 739.449219 555.03125 753.492188 555.03125 C 767.003906 555.03125 767.730469 554.894531 768.832031 552.140625 Z M 85.828125 449.589844 C 57.742188 447.949219 8.988281 441.347656 6.488281 438.847656 C 4.15625 436.515625 14.390625 433.792969 42.816406 429.183594 C 82.496094 422.746094 107.382812 421.59375 252.390625 419.457031 L 313.027344 418.566406 L 317.554688 423.09375 C 322.621094 428.164062 323.546875 434.160156 320.25 440.535156 C 316.707031 447.390625 315.878906 447.488281 251.460938 448.519531 C 128.710938 450.488281 103.980469 450.648438 85.828125 449.589844 Z M 166.078125 380.796875 C 131.386719 378.730469 70.871094 370.960938 68.132812 368.222656 C 66.53125 366.621094 70.699219 365.277344 83.707031 363.195312 C 139.605469 354.246094 158.867188 353.390625 303.910156 353.386719 L 430.191406 353.386719 L 434.554688 357.753906 C 438.136719 361.335938 438.921875 363.09375 438.921875 367.515625 C 438.921875 371.9375 438.132812 373.699219 434.554688 377.277344 L 430.191406 381.644531 L 301.34375 381.410156 C 230.476562 381.28125 169.609375 381.007812 166.078125 380.796875 Z M 78.125 305.78125 C 50.773438 303.929688 4.601562 296.953125 1.839844 294.261719 C 0.0273438 292.492188 5.71875 290.839844 25.773438 287.324219 C 73.761719 278.917969 95.238281 277.773438 213.867188 277.324219 L 307.882812 276.96875 L 311.269531 280.351562 C 313.605469 282.683594 314.863281 285.5625 315.320312 289.628906 C 315.929688 295.03125 315.621094 295.890625 311.605469 299.90625 L 307.222656 304.292969 L 289.933594 305.046875 C 260.160156 306.351562 94.964844 306.925781 78.125 305.785156 Z M 78.125 305.78125 " fill-opacity="1" fill-rule="nonzero"/></svg>