<svg xmlns="http://www.w3.org/2000/svg" xmlns:xlink="http://www.w3.org/1999/xlink" width="1080" zoomAndPan="magnify" viewBox="0 0 810 809.999993" height="1080" preserveAspectRatio="xMidYMid meet" version="1.0"><path fill="#000000" d="M 227.078125 340.617188 L 207.945312 340.617188 C 197.191406 340.617188 188.535156 349.136719 188.535156 359.75 L 188.535156 418.128906 C 188.535156 428.742188 197.191406 437.261719 207.945312 437.261719 L 227.078125 437.261719 Z M 227.078125 340.617188 " fill-opacity="1" fill-rule="nonzero"/><path fill="#000000" d="M 405 0 C 181.273438 0 0 181.273438 0 405 C 0 628.726562 181.273438 810 405 810 C 628.726562 810 810 628.726562 810 405 C 810 181.273438 628.726562 0 405 0 Z M 663.363281 418.265625 C 663.363281 451.925781 635.988281 479.296875 602.332031 479.296875 L 577.613281 479.296875 C 559.738281 550.101562 499.128906 604.707031 424.96875 613.085938 C 417.148438 632.636719 398.015625 646.464844 375.8125 646.464844 C 346.484375 646.464844 322.601562 622.582031 322.601562 593.253906 C 322.601562 563.925781 346.484375 540.046875 375.8125 540.046875 C 397.179688 540.046875 415.472656 552.753906 423.851562 570.910156 C 489.910156 561.832031 541.304688 504.433594 541.304688 436.144531 L 541.304688 341.875 C 541.304688 266.742188 480.273438 205.710938 405.140625 205.710938 C 330.003906 205.710938 268.976562 266.742188 268.976562 341.875 L 268.976562 458.488281 C 268.976562 470.078125 259.617188 479.4375 248.027344 479.4375 L 207.945312 479.4375 C 174.148438 479.4375 146.636719 452.0625 146.636719 418.40625 L 146.636719 360.03125 C 146.636719 326.375 174.148438 299 207.945312 299 L 232.527344 299 C 251.796875 221.492188 321.765625 163.957031 405.140625 163.957031 C 488.515625 163.957031 558.480469 221.632812 577.753906 299 L 602.332031 299 C 635.988281 299 663.363281 326.375 663.363281 360.03125 L 663.363281 418.40625 Z M 663.363281 418.265625 " fill-opacity="1" fill-rule="nonzero"/><path fill="#000000" d="M 375.671875 581.941406 C 369.527344 581.941406 364.359375 586.96875 364.359375 593.253906 C 364.359375 599.539062 369.25 604.566406 375.671875 604.566406 C 382.097656 604.566406 386.984375 599.539062 386.984375 593.253906 C 386.984375 586.96875 381.675781 581.941406 375.671875 581.941406 Z M 375.671875 581.941406 " fill-opacity="1" fill-rule="nonzero"/><path fill="#000000" d="M 602.332031 340.617188 L 583.199219 340.617188 L 583.199219 437.261719 L 602.332031 437.261719 C 612.667969 437.261719 621.464844 428.460938 621.464844 418.128906 L 621.464844 359.75 C 621.464844 349.417969 612.667969 340.617188 602.332031 340.617188 Z M 602.332031 340.617188 " fill-opacity="1" fill-rule="nonzero"/></svg>