<svg xmlns="http://www.w3.org/2000/svg" xmlns:xlink="http://www.w3.org/1999/xlink" width="1080" zoomAndPan="magnify" viewBox="0 0 810 809.999993" height="1080" preserveAspectRatio="xMidYMid meet" version="1.0"><defs><clipPath id="6386240523"><path d="M 63 563.195312 L 362 563.195312 L 362 735 L 63 735 Z M 63 563.195312 " clip-rule="nonzero"/></clipPath><clipPath id="60ab48a4dd"><path d="M 50.21875 489 L 374.671875 489 L 374.671875 554.949219 L 50.21875 554.949219 Z M 50.21875 489 " clip-rule="nonzero"/></clipPath><clipPath id="905f301d58"><path d="M 183.226562 563.195312 L 241.878906 563.195312 L 241.878906 735 L 183.226562 735 Z M 183.226562 563.195312 " clip-rule="nonzero"/></clipPath><clipPath id="07bcda558f"><path d="M 560.4375 612.269531 L 722.277344 612.269531 L 722.277344 729.109375 L 560.4375 729.109375 Z M 560.4375 612.269531 " clip-rule="nonzero"/></clipPath><clipPath id="de5d9edd64"><path d="M 553.640625 562 L 728.964844 562 L 728.964844 606.554688 L 553.640625 606.554688 Z M 553.640625 562 " clip-rule="nonzero"/></clipPath><clipPath id="fca2d058ca"><path d="M 626.804688 612.269531 L 655.910156 612.269531 L 655.910156 729.109375 L 626.804688 729.109375 Z M 626.804688 612.269531 " clip-rule="nonzero"/></clipPath></defs><path fill="#000000" d="M 694.28125 293.660156 C 691.886719 270.859375 687.261719 264.800781 683.496094 262.0625 C 681.578125 260.660156 676.820312 257.269531 578.929688 256.277344 C 607.316406 245.5625 622.515625 228.375 624.09375 204.753906 C 625.976562 176.273438 595.707031 106.265625 572.871094 95.582031 C 552.5 86.066406 521 98.046875 488.574219 127.558594 C 464.8125 149.160156 440.8125 184.589844 431.945312 198.214844 C 426.738281 195.441406 420.816406 193.527344 414.175781 192.839844 C 403.972656 191.8125 394.351562 194.964844 386.75 200.886719 C 376.957031 184.726562 352.132812 145.394531 328.0625 120.4375 C 297.417969 88.667969 261.230469 81 235.859375 100.925781 C 212.027344 119.648438 196.722656 181.714844 203.09375 212.664062 C 206.753906 230.464844 228.566406 247.617188 266.160156 258.535156 C 193.574219 259.972656 134.203125 261.925781 120.917969 264.046875 C 118.96875 264.355469 115.988281 264.835938 114.140625 267.402344 C 107.496094 276.609375 108.320312 368.152344 118.589844 377.976562 C 119.550781 378.867188 120.953125 380.203125 138.894531 381.433594 C 139.648438 721.71875 147.351562 727.675781 150.671875 730.140625 C 155.671875 733.871094 226.066406 735 306.835938 735 C 339.328125 735 373.5 734.828125 405.785156 734.554688 C 653.46875 732.605469 659.117188 726.953125 661.515625 724.558594 C 668.398438 717.675781 671.171875 602.171875 669.835938 381.332031 C 686.132812 380.066406 687.398438 378.730469 688.425781 377.601562 C 696.164062 369.042969 696.847656 318.035156 694.28125 293.660156 Z M 497.476562 137.28125 C 525.414062 111.84375 552.191406 100.445312 567.324219 107.496094 C 582.355469 114.515625 612.726562 177.164062 610.945312 203.832031 C 608.820312 235.875 571.808594 253.402344 500.96875 255.96875 C 484.945312 256.003906 467.414062 256.070312 448.414062 256.207031 C 448.753906 254.804688 449.132812 253.296875 449.472656 251.6875 C 466.148438 250.902344 518.464844 247.921875 541.097656 240.152344 C 555.238281 235.292969 565.785156 221.496094 569.308594 203.214844 C 572.355469 187.296875 569.140625 172.539062 561.058594 165.589844 C 546.0625 152.683594 523.464844 157.375 493.882812 179.59375 C 477.34375 191.984375 458.890625 207.183594 448.6875 215.710938 C 447.144531 212.25 445.058594 209.101562 442.457031 206.296875 C 450.5 193.867188 474.570312 158.128906 497.476562 137.28125 Z M 561.128906 718.671875 C 582.011719 700.730469 633.679688 656.46875 655.523438 638.1875 C 655.316406 648.148438 655.078125 657.425781 654.804688 665.882812 L 598.070312 717.609375 C 586.941406 717.984375 574.546875 718.328125 561.128906 718.671875 Z M 444.097656 720.722656 C 444.097656 715.28125 444.066406 706.859375 444.03125 696.351562 L 497.375 654.550781 C 540.960938 620.386719 628.40625 548.222656 656.789062 524.738281 C 656.617188 561.46875 656.277344 597.175781 655.695312 627.710938 C 635.5625 644.316406 561.09375 708.261719 548.597656 718.980469 C 517.234375 719.664062 481.246094 720.28125 444.097656 720.722656 Z M 656.859375 514.433594 C 636.007812 531.6875 539.144531 611.792969 492.511719 648.320312 L 443.996094 686.320312 C 443.960938 677.488281 443.894531 667.628906 443.859375 657.117188 C 465.328125 640.070312 485.664062 623.945312 498.605469 613.746094 C 531.613281 587.726562 626.96875 508.339844 656.925781 483.347656 C 656.925781 493.722656 656.894531 504.09375 656.859375 514.433594 Z M 442.761719 472.121094 C 491.621094 432.957031 538.1875 395.882812 552.394531 384.585938 C 568.832031 384.414062 583.175781 384.207031 595.84375 383.96875 C 571.5 404.679688 515.828125 451.921875 497.855469 466.640625 C 488.472656 474.34375 467.414062 491.015625 442.523438 510.734375 C 442.558594 498.683594 442.625 485.675781 442.761719 472.121094 Z M 442.867188 461.917969 C 443.140625 436.824219 443.515625 410.394531 443.894531 385.269531 C 481.214844 385.167969 512.816406 384.996094 539.488281 384.753906 C 520.726562 399.679688 482.925781 429.773438 442.867188 461.917969 Z M 451.734375 230.328125 C 458.992188 224.199219 481.828125 205.097656 501.792969 190.101562 C 518.261719 177.746094 540.414062 165.214844 552.429688 175.554688 C 556.058594 178.703125 558.695312 188.5625 556.332031 200.714844 C 553.730469 214.304688 546.40625 224.371094 536.785156 227.691406 C 517.027344 234.46875 469.984375 237.449219 451.460938 238.371094 C 451.734375 235.703125 451.800781 233.03125 451.734375 230.328125 Z M 412.90625 205.953125 C 423.964844 207.046875 437.285156 213.484375 438.519531 227.898438 C 439.375 238.132812 436.53125 250.046875 434.75 256.3125 C 427.082031 256.378906 419.171875 256.449219 410.988281 256.515625 C 403.183594 256.585938 395.273438 256.652344 387.332031 256.753906 C 385.414062 248.609375 383.1875 234.984375 385.449219 225.945312 C 386.441406 221.972656 388.324219 218.484375 390.6875 215.503906 C 390.6875 215.46875 390.71875 215.46875 390.71875 215.46875 C 395.992188 208.863281 404.109375 205.0625 412.90625 205.953125 Z M 243.289062 384.445312 C 232.402344 394 215.28125 408.71875 202.097656 418.851562 C 187.480469 430.113281 164.847656 446.71875 152.488281 455.757812 C 152.417969 446.890625 152.351562 438.160156 152.316406 429.566406 L 212.164062 384.003906 C 221.582031 384.140625 231.886719 384.277344 243.289062 384.445312 Z M 375.210938 402.113281 C 349.121094 425.390625 293.960938 474.277344 262.804688 499.710938 C 227.914062 528.195312 174.949219 570.128906 154.164062 586.496094 C 153.960938 576.359375 153.789062 565.953125 153.652344 555.375 C 166.183594 545.960938 204.425781 516.761719 236.507812 487.796875 C 270.097656 457.46875 342.476562 399.886719 361 385.234375 C 365.625 385.234375 370.417969 385.269531 375.246094 385.269531 C 375.210938 390.816406 375.210938 396.429688 375.210938 402.113281 Z M 231.167969 481.945312 C 202.613281 507.722656 169.058594 533.742188 153.480469 545.585938 C 153.101562 519.226562 152.796875 492.042969 152.589844 465.476562 C 162.964844 457.914062 190.183594 438.023438 206.960938 425.117188 C 223.464844 412.449219 245.960938 392.699219 255.136719 384.585938 C 280.917969 384.859375 311.699219 385.097656 348.332031 385.199219 C 322.414062 405.808594 261.367188 454.695312 231.167969 481.945312 Z M 154.371094 596.421875 C 170.359375 583.824219 229.796875 536.855469 267.804688 505.839844 C 297.078125 481.910156 347.441406 437.441406 375.175781 412.722656 C 375.074219 448.703125 375.003906 485.609375 374.972656 516.589844 C 346.828125 539.390625 326.523438 556.027344 314.847656 565.917969 C 273.316406 601.113281 185.117188 673.277344 157.589844 695.769531 C 156.253906 672.96875 155.191406 637.433594 154.371094 596.421875 Z M 377.46875 721.375 C 372.609375 721.410156 367.746094 721.445312 362.917969 721.476562 L 377.160156 710.144531 C 377.300781 714.699219 377.402344 718.464844 377.46875 721.375 Z M 371.410156 239.332031 C 358.980469 238.679688 332.582031 236.113281 309.265625 226.015625 C 277.699219 212.320312 262.597656 188.628906 266.433594 178.941406 C 267.667969 175.863281 271.328125 173.328125 276.464844 171.957031 C 286.667969 169.289062 304.851562 171.171875 322.484375 185.34375 C 345.832031 204.105469 365.898438 228.101562 371.238281 234.675781 C 371.308594 236.25 371.339844 237.789062 371.410156 239.332031 Z M 216.035156 209.992188 C 210.042969 180.996094 225.757812 125.675781 244.042969 111.296875 C 263.730469 95.859375 292.96875 103.011719 318.578125 129.578125 C 343.402344 155.320312 370.074219 198.660156 377.574219 211.191406 C 376.304688 213.246094 375.210938 215.4375 374.320312 217.761719 C 364.9375 206.910156 349.019531 189.691406 330.800781 175.074219 C 309.371094 157.855469 286.976562 155.59375 273.179688 159.222656 C 263.796875 161.6875 257.085938 166.960938 254.246094 174.046875 C 246.402344 193.664062 269.207031 223 304.0625 238.097656 C 331.007812 249.773438 360.796875 252.167969 373.019531 252.613281 C 373.292969 254.121094 373.566406 255.523438 373.839844 256.824219 C 368.398438 256.894531 362.917969 256.960938 357.441406 257.03125 C 267.667969 256.105469 220.074219 229.574219 216.035156 209.992188 Z M 124.445312 276.78125 C 144.203125 273.769531 246.164062 271.40625 357.269531 270.277344 C 358.878906 270.277344 360.386719 270.378906 362.027344 270.378906 C 366.238281 270.378906 370.691406 270.242188 375.074219 270.105469 C 375.277344 270.105469 375.449219 270.105469 375.65625 270.105469 C 375.585938 285.375 375.484375 325.257812 375.347656 372.089844 C 268.625 371.882812 183.300781 370.652344 145.84375 368.90625 C 145.742188 368.90625 145.671875 368.835938 145.605469 368.835938 C 145.535156 368.835938 145.503906 368.871094 145.46875 368.871094 C 136.804688 368.460938 130.746094 368.015625 127.628906 367.570312 C 122.9375 354.730469 121.878906 290.167969 124.445312 276.78125 Z M 199.460938 383.695312 L 152.28125 419.605469 C 152.214844 406.628906 152.179688 394.101562 152.144531 382.1875 C 163.476562 382.734375 178.75 383.25 199.460938 383.695312 Z M 158.203125 705.457031 C 178.988281 688.511719 275.78125 609.398438 319.949219 571.945312 C 330.90625 562.667969 349.429688 547.433594 374.9375 526.757812 C 374.9375 536 374.9375 544.625 374.9375 552.328125 C 374.9375 556.367188 374.9375 560.410156 374.972656 564.414062 C 358.5 577.59375 343.027344 590.019531 330.699219 600.121094 C 288.277344 634.902344 198.710938 704.566406 178.40625 720.3125 C 169.777344 720.003906 163.339844 719.59375 159.710938 719.148438 C 159.164062 716.410156 158.683594 711.652344 158.203125 705.457031 Z M 190.800781 720.757812 C 220.175781 697.925781 297.25 637.8125 335.699219 606.28125 C 346.792969 597.210938 360.386719 586.21875 374.972656 574.546875 C 375.210938 624.082031 376.203125 671.429688 376.921875 700.21875 L 350.113281 721.546875 C 285.675781 721.855469 226.410156 721.683594 190.800781 720.757812 Z M 390.6875 721.273438 C 390.070312 699.429688 388.117188 625.519531 388.117188 552.363281 C 388.117188 473.933594 388.667969 305.128906 388.804688 270.003906 C 403.527344 269.902344 418.25 269.796875 432.867188 269.730469 C 432.527344 286.027344 431.636719 329.296875 430.847656 378.695312 C 430.847656 378.695312 430.847656 378.730469 430.847656 378.730469 C 430.847656 378.730469 430.847656 378.730469 430.847656 378.765625 C 429.785156 444.390625 428.863281 520.730469 429.582031 558.9375 C 430.746094 621.582031 430.917969 698.027344 430.949219 720.929688 C 417.53125 721.03125 404.074219 721.167969 390.6875 721.273438 Z M 610.292969 717.164062 L 654.425781 676.90625 C 653.707031 695.5625 652.851562 708.949219 651.792969 714.527344 C 645.9375 715.488281 631.179688 716.375 610.292969 717.164062 Z M 656.960938 473.042969 C 635.015625 491.359375 528.875 579.851562 493.710938 607.546875 C 481.726562 616.960938 463.445312 631.476562 443.789062 647.089844 C 443.585938 619.015625 443.277344 587.417969 442.730469 558.664062 C 442.558594 548.496094 442.488281 535.554688 442.488281 520.902344 L 446.152344 518.027344 C 471.695312 497.792969 493.300781 480.679688 502.886719 472.804688 C 523.054688 456.269531 590.640625 398.824219 608.34375 383.761719 C 629.777344 383.285156 645.386719 382.769531 656.757812 382.1875 C 656.894531 409.882812 656.960938 441.070312 656.960938 473.042969 Z M 679.25 367.535156 C 665.488281 369.519531 588.519531 371.679688 444.097656 372.054688 C 444.886719 325.222656 445.707031 284.964844 446.015625 269.628906 C 560.167969 269.148438 663.5 270.105469 676 273.050781 C 682.195312 281.097656 686.03125 350.933594 679.25 367.535156 Z M 679.25 367.535156 " fill-opacity="1" fill-rule="nonzero"/><path fill="#000000" d="M 320.136719 421.683594 C 320.136719 412.164062 306.601562 411.796875 298.808594 409.476562 C 299.085938 415.632812 296.210938 421.992188 293.921875 427.570312 L 293.84375 427.554688 C 275.683594 453.070312 244.664062 465.761719 219.019531 481.824219 L 219.007812 481.84375 L 218.992188 481.851562 C 235.121094 454.105469 258.058594 425.605469 290.632812 425.703125 C 291.007812 424.734375 292.988281 419.933594 293.265625 419.039062 C 293.554688 418.28125 293.777344 417.480469 293.980469 416.683594 C 297.332031 406.980469 288.292969 409.808594 281.96875 411.25 C 254.03125 417.355469 227.1875 443.382812 209.46875 472.261719 C 192.117188 444.425781 171.09375 418.878906 144.914062 411.445312 C 127.839844 404.992188 131.371094 413.765625 135.007812 425.730469 C 167.277344 428.25 188.230469 452.902344 202.519531 481.855469 C 182.503906 472.5 140.484375 446.996094 130.804688 427.054688 L 130.726562 427.0625 C 128.859375 421.132812 126.523438 414.421875 127.320312 408.132812 C 116.480469 409 105.640625 412.183594 105.417969 425.152344 C 104.746094 464.570312 174.265625 487.375 210.113281 504.195312 C 242.089844 491.550781 320.136719 465.695312 320.136719 421.683594 " fill-opacity="1" fill-rule="nonzero"/><g clip-path="url(#6386240523)"><path fill="#000000" d="M 361.875 563.382812 L 361.484375 595.457031 L 361.414062 601.242188 L 361.414062 601.25 L 361.195312 619.746094 L 361.097656 627.792969 L 361 635.863281 L 360.90625 644.347656 L 360.789062 653.980469 L 360.695312 662.28125 L 360.535156 675.039062 L 360.246094 699.332031 L 359.8125 735 L 65.074219 735 L 64.621094 697.976562 L 64.339844 674.132812 L 64.101562 654.195312 L 63.980469 644.125 L 63.828125 631.316406 L 63.691406 619.886719 L 63.425781 597.949219 L 63.398438 596.042969 L 63.019531 563.382812 L 361.875 563.382812 " fill-opacity="1" fill-rule="nonzero"/></g><g clip-path="url(#60ab48a4dd)"><path fill="#000000" d="M 374.671875 495.488281 L 374.671875 548.300781 C 374.671875 551.800781 371.109375 554.636719 366.707031 554.636719 L 58.183594 554.636719 C 53.785156 554.636719 50.21875 551.800781 50.21875 548.300781 L 50.21875 495.488281 C 50.21875 491.988281 53.785156 489.152344 58.183594 489.152344 L 366.707031 489.152344 C 371.109375 489.152344 374.671875 491.988281 374.671875 495.488281 " fill-opacity="1" fill-rule="nonzero"/></g><path fill="#ffffff" d="M 241.476562 554.640625 L 183.410156 554.640625 L 183.410156 489.148438 L 241.476562 489.148438 L 241.476562 554.640625 " fill-opacity="1" fill-rule="nonzero"/><g clip-path="url(#905f301d58)"><path fill="#ffffff" d="M 241.476562 563.382812 L 241.476562 735 L 183.410156 735 L 183.410156 563.382812 L 241.476562 563.382812 " fill-opacity="1" fill-rule="nonzero"/></g><path fill="#ffffff" d="M 206.09375 494.589844 C 206.015625 494.539062 205.925781 494.476562 205.847656 494.421875 C 205.449219 494.144531 205.054688 493.871094 204.648438 493.597656 L 204.449219 493.464844 C 204.800781 494.222656 205.144531 494.988281 205.476562 495.753906 L 206.03125 494.828125 L 206.148438 494.625 L 206.09375 494.589844 " fill-opacity="1" fill-rule="nonzero"/><path fill="#000000" d="M 714.351562 516.195312 C 714.351562 509.726562 705.171875 509.476562 699.886719 507.902344 C 700.074219 512.082031 698.121094 516.402344 696.570312 520.195312 L 696.515625 520.183594 C 684.199219 537.523438 663.15625 546.148438 645.761719 557.066406 L 645.753906 557.078125 L 645.742188 557.082031 C 656.683594 538.226562 672.242188 518.863281 694.339844 518.929688 C 694.59375 518.269531 695.9375 515.003906 696.125 514.398438 C 696.320312 513.882812 696.472656 513.339844 696.609375 512.796875 C 698.882812 506.203125 692.753906 508.125 688.460938 509.105469 C 669.511719 513.253906 651.304688 530.941406 639.285156 550.566406 C 627.511719 531.648438 613.253906 514.292969 595.496094 509.238281 C 583.914062 504.851562 586.308594 510.8125 588.773438 518.945312 C 610.664062 520.65625 624.878906 537.410156 634.570312 557.085938 C 620.992188 550.730469 592.492188 533.398438 585.925781 519.84375 L 585.871094 519.851562 C 584.605469 515.824219 583.023438 511.261719 583.558594 506.988281 C 576.207031 507.574219 568.855469 509.738281 568.707031 518.554688 C 568.25 545.339844 615.40625 560.835938 639.722656 572.265625 C 661.410156 563.671875 714.351562 546.101562 714.351562 516.195312 " fill-opacity="1" fill-rule="nonzero"/><g clip-path="url(#07bcda558f)"><path fill="#000000" d="M 722.050781 612.488281 L 721.84375 634.28125 L 721.6875 650.792969 L 721.328125 688.367188 L 721.167969 704.875 L 720.9375 729.109375 L 561.664062 729.109375 L 561.421875 703.957031 L 561.269531 687.746094 L 560.921875 650.886719 L 560.765625 634.6875 L 560.554688 612.488281 L 722.050781 612.488281 " fill-opacity="1" fill-rule="nonzero"/></g><g clip-path="url(#de5d9edd64)"><path fill="#000000" d="M 728.96875 566.347656 L 728.96875 602.238281 C 728.96875 604.613281 727.039062 606.542969 724.664062 606.542969 L 557.945312 606.542969 C 555.566406 606.542969 553.640625 604.613281 553.640625 602.238281 L 553.640625 566.347656 C 553.640625 563.972656 555.566406 562.042969 557.945312 562.042969 L 724.664062 562.042969 C 727.039062 562.042969 728.96875 563.972656 728.96875 566.347656 " fill-opacity="1" fill-rule="nonzero"/></g><g clip-path="url(#fca2d058ca)"><path fill="#ffffff" d="M 655.75 612.492188 L 655.554688 729.109375 L 627.046875 729.109375 L 626.851562 612.492188 L 655.75 612.492188 " fill-opacity="1" fill-rule="nonzero"/></g><path fill="#ffffff" d="M 656.988281 606.542969 L 625.613281 606.542969 L 625.613281 562.042969 L 656.988281 562.042969 L 656.988281 606.542969 " fill-opacity="1" fill-rule="nonzero"/><path fill="#ffffff" d="M 636.996094 565.738281 C 636.941406 565.703125 636.882812 565.660156 636.828125 565.625 C 636.558594 565.433594 636.289062 565.25 636.015625 565.0625 L 635.878906 564.972656 C 636.117188 565.488281 636.351562 566.007812 636.574219 566.527344 L 636.953125 565.902344 L 637.03125 565.761719 L 636.996094 565.738281 " fill-opacity="1" fill-rule="nonzero"/></svg>