<svg xmlns="http://www.w3.org/2000/svg" xmlns:xlink="http://www.w3.org/1999/xlink" width="1080" zoomAndPan="magnify" viewBox="0 0 810 809.999993" height="1080" preserveAspectRatio="xMidYMid meet" version="1.0"><path fill="#f1bc19" d="M 684.828125 11.898438 C 684.148438 11.898438 683.476562 11.960938 682.808594 12.09375 C 682.144531 12.226562 681.496094 12.425781 680.867188 12.683594 C 680.242188 12.945312 679.644531 13.261719 679.082031 13.640625 C 678.515625 14.015625 677.992188 14.445312 677.511719 14.925781 C 677.03125 15.40625 676.601562 15.929688 676.226562 16.492188 C 675.847656 17.058594 675.53125 17.65625 675.269531 18.28125 C 675.011719 18.910156 674.8125 19.558594 674.679688 20.222656 C 674.550781 20.890625 674.484375 21.5625 674.484375 22.242188 C 674.484375 22.921875 674.550781 23.59375 674.679688 24.257812 C 674.8125 24.925781 675.011719 25.574219 675.269531 26.199219 C 675.53125 26.828125 675.847656 27.425781 676.226562 27.988281 C 676.601562 28.554688 677.03125 29.074219 677.511719 29.554688 C 677.992188 30.035156 678.515625 30.464844 679.082031 30.84375 C 679.644531 31.21875 680.242188 31.539062 680.867188 31.796875 C 681.496094 32.058594 682.144531 32.253906 682.808594 32.386719 C 683.476562 32.519531 684.148438 32.585938 684.828125 32.585938 C 685.507812 32.585938 686.179688 32.519531 686.84375 32.386719 C 687.511719 32.253906 688.160156 32.058594 688.785156 31.796875 C 689.414062 31.539062 690.011719 31.21875 690.574219 30.84375 C 691.140625 30.464844 691.660156 30.035156 692.140625 29.554688 C 692.621094 29.074219 693.050781 28.554688 693.429688 27.988281 C 693.804688 27.425781 694.125 26.828125 694.386719 26.199219 C 694.644531 25.574219 694.839844 24.925781 694.972656 24.257812 C 695.105469 23.59375 695.171875 22.921875 695.171875 22.242188 C 695.171875 21.5625 695.105469 20.890625 694.972656 20.222656 C 694.839844 19.558594 694.644531 18.910156 694.386719 18.28125 C 694.125 17.65625 693.804688 17.058594 693.429688 16.492188 C 693.050781 15.929688 692.621094 15.40625 692.140625 14.925781 C 691.660156 14.445312 691.140625 14.015625 690.574219 13.640625 C 690.011719 13.261719 689.414062 12.945312 688.785156 12.683594 C 688.160156 12.425781 687.511719 12.226562 686.84375 12.09375 C 686.179688 11.960938 685.507812 11.898438 684.828125 11.898438 Z M 684.828125 11.898438 " fill-opacity="1" fill-rule="nonzero"/><path fill="#e4e4f9" d="M 405.515625 22.242188 C 399.253906 22.242188 392.992188 22.394531 386.734375 22.703125 C 380.480469 23.011719 374.234375 23.46875 368 24.085938 C 361.765625 24.699219 355.550781 25.464844 349.355469 26.382812 C 343.160156 27.304688 336.988281 28.375 330.84375 29.597656 C 324.699219 30.816406 318.589844 32.191406 312.515625 33.710938 C 306.4375 35.234375 300.402344 36.90625 294.410156 38.722656 C 288.414062 40.542969 282.46875 42.503906 276.570312 44.617188 C 270.671875 46.726562 264.828125 48.980469 259.042969 51.378906 C 253.253906 53.773438 247.53125 56.3125 241.867188 58.992188 C 236.203125 61.667969 230.609375 64.484375 225.085938 67.4375 C 219.5625 70.390625 214.113281 73.476562 208.738281 76.695312 C 203.367188 79.917969 198.078125 83.269531 192.867188 86.746094 C 187.660156 90.226562 182.539062 93.832031 177.507812 97.566406 C 172.476562 101.296875 167.539062 105.148438 162.699219 109.125 C 157.855469 113.097656 153.113281 117.1875 148.472656 121.394531 C 143.832031 125.601562 139.296875 129.917969 134.867188 134.347656 C 130.4375 138.777344 126.117188 143.3125 121.910156 147.953125 C 117.703125 152.597656 113.613281 157.339844 109.640625 162.179688 C 105.667969 167.023438 101.8125 171.960938 98.082031 176.992188 C 94.351562 182.023438 90.746094 187.140625 87.265625 192.351562 C 83.785156 197.558594 80.433594 202.851562 77.214844 208.222656 C 73.992188 213.59375 70.90625 219.042969 67.953125 224.570312 C 65 230.09375 62.1875 235.6875 59.507812 241.347656 C 56.828125 247.011719 54.292969 252.738281 51.894531 258.523438 C 49.496094 264.3125 47.242188 270.15625 45.132812 276.050781 C 43.023438 281.949219 41.058594 287.898438 39.238281 293.890625 C 37.421875 299.886719 35.75 305.921875 34.230469 311.996094 C 32.707031 318.074219 31.335938 324.183594 30.113281 330.328125 C 28.890625 336.472656 27.820312 342.640625 26.902344 348.835938 C 25.980469 355.035156 25.214844 361.25 24.601562 367.484375 C 23.988281 373.71875 23.527344 379.960938 23.21875 386.21875 C 22.914062 392.476562 22.757812 398.734375 22.757812 405 C 22.757812 411.265625 22.914062 417.523438 23.21875 423.78125 C 23.527344 430.039062 23.988281 436.28125 24.601562 442.515625 C 25.214844 448.75 25.980469 454.964844 26.902344 461.164062 C 27.820312 467.359375 28.890625 473.527344 30.113281 479.671875 C 31.335938 485.816406 32.707031 491.925781 34.230469 498.003906 C 35.75 504.078125 37.421875 510.113281 39.238281 516.109375 C 41.058594 522.101562 43.023438 528.050781 45.132812 533.949219 C 47.242188 539.84375 49.496094 545.6875 51.894531 551.476562 C 54.292969 557.261719 56.828125 562.988281 59.507812 568.648438 C 62.1875 574.3125 65 579.90625 67.953125 585.429688 C 70.90625 590.957031 73.992188 596.402344 77.214844 601.777344 C 80.433594 607.148438 83.785156 612.441406 87.265625 617.648438 C 90.746094 622.859375 94.351562 627.976562 98.082031 633.007812 C 101.8125 638.039062 105.667969 642.976562 109.640625 647.820312 C 113.613281 652.660156 117.703125 657.402344 121.910156 662.042969 C 126.117188 666.6875 130.4375 671.222656 134.867188 675.652344 C 139.296875 680.082031 143.832031 684.398438 148.472656 688.605469 C 153.113281 692.8125 157.855469 696.902344 162.699219 700.875 C 167.539062 704.851562 172.476562 708.703125 177.507812 712.433594 C 182.539062 716.164062 187.660156 719.773438 192.867188 723.253906 C 198.078125 726.730469 203.367188 730.082031 208.738281 733.304688 C 214.113281 736.523438 219.5625 739.609375 225.085938 742.5625 C 230.609375 745.515625 236.203125 748.332031 241.867188 751.007812 C 247.53125 753.6875 253.253906 756.226562 259.042969 758.621094 C 264.828125 761.019531 270.671875 763.273438 276.570312 765.382812 C 282.46875 767.496094 288.414062 769.457031 294.410156 771.277344 C 300.402344 773.09375 306.4375 774.765625 312.515625 776.289062 C 318.589844 777.808594 324.699219 779.183594 330.84375 780.402344 C 336.988281 781.625 343.160156 782.695312 349.355469 783.617188 C 355.550781 784.535156 361.765625 785.300781 368 785.914062 C 374.234375 786.53125 380.480469 786.988281 386.734375 787.296875 C 392.992188 787.605469 399.253906 787.757812 405.515625 787.757812 C 411.78125 787.757812 418.042969 787.605469 424.296875 787.296875 C 430.554688 786.988281 436.800781 786.53125 443.035156 785.914062 C 449.269531 785.300781 455.484375 784.535156 461.679688 783.617188 C 467.875 782.695312 474.046875 781.625 480.191406 780.402344 C 486.332031 779.183594 492.445312 777.808594 498.519531 776.289062 C 504.597656 774.765625 510.632812 773.09375 516.625 771.277344 C 522.621094 769.457031 528.566406 767.496094 534.464844 765.382812 C 540.363281 763.273438 546.207031 761.019531 551.992188 758.621094 C 557.78125 756.226562 563.503906 753.6875 569.167969 751.007812 C 574.832031 748.332031 580.421875 745.515625 585.949219 742.5625 C 591.472656 739.609375 596.921875 736.523438 602.292969 733.304688 C 607.667969 730.082031 612.957031 726.730469 618.167969 723.253906 C 623.375 719.773438 628.496094 716.164062 633.527344 712.433594 C 638.558594 708.703125 643.496094 704.851562 648.335938 700.875 C 653.179688 696.902344 657.921875 692.8125 662.5625 688.605469 C 667.203125 684.398438 671.738281 680.082031 676.167969 675.652344 C 680.597656 671.222656 684.914062 666.6875 689.121094 662.042969 C 693.328125 657.402344 697.417969 652.660156 701.394531 647.820312 C 705.367188 642.976562 709.21875 638.039062 712.953125 633.007812 C 716.683594 627.976562 720.289062 622.859375 723.769531 617.648438 C 727.25 612.441406 730.601562 607.148438 733.820312 601.777344 C 737.039062 596.402344 740.128906 590.957031 743.082031 585.429688 C 746.03125 579.90625 748.847656 574.3125 751.527344 568.648438 C 754.203125 562.988281 756.742188 557.261719 759.140625 551.476562 C 761.539062 545.6875 763.789062 539.84375 765.902344 533.949219 C 768.011719 528.050781 769.976562 522.101562 771.792969 516.109375 C 773.613281 510.113281 775.28125 504.078125 776.804688 498.003906 C 778.328125 491.925781 779.699219 485.816406 780.921875 479.671875 C 782.144531 473.527344 783.214844 467.359375 784.132812 461.164062 C 785.050781 454.964844 785.820312 448.75 786.433594 442.515625 C 787.046875 436.28125 787.507812 430.039062 787.816406 423.78125 C 788.121094 417.523438 788.277344 411.265625 788.277344 405 C 788.277344 398.734375 788.121094 392.476562 787.816406 386.21875 C 787.507812 379.960938 787.046875 373.71875 786.433594 367.484375 C 785.820312 361.25 785.050781 355.035156 784.132812 348.835938 C 783.214844 342.640625 782.144531 336.472656 780.921875 330.328125 C 779.699219 324.183594 778.328125 318.074219 776.804688 311.996094 C 775.28125 305.921875 773.613281 299.886719 771.792969 293.890625 C 769.976562 287.898438 768.011719 281.949219 765.902344 276.050781 C 763.789062 270.15625 761.539062 264.3125 759.140625 258.523438 C 756.742188 252.738281 754.203125 247.011719 751.527344 241.347656 C 748.847656 235.6875 746.03125 230.09375 743.082031 224.570312 C 740.128906 219.042969 737.039062 213.59375 733.820312 208.222656 C 730.601562 202.851562 727.25 197.558594 723.769531 192.351562 C 720.289062 187.140625 716.683594 182.023438 712.953125 176.992188 C 709.21875 171.960938 705.367188 167.023438 701.394531 162.179688 C 697.417969 157.339844 693.328125 152.597656 689.121094 147.953125 C 684.914062 143.3125 680.597656 138.777344 676.167969 134.347656 C 671.738281 129.917969 667.203125 125.601562 662.5625 121.394531 C 657.921875 117.1875 653.179688 113.097656 648.335938 109.125 C 643.496094 105.148438 638.558594 101.296875 633.527344 97.566406 C 628.496094 93.832031 623.375 90.226562 618.167969 86.746094 C 612.957031 83.269531 607.667969 79.917969 602.292969 76.695312 C 596.921875 73.476562 591.472656 70.390625 585.949219 67.4375 C 580.421875 64.484375 574.832031 61.667969 569.167969 58.992188 C 563.503906 56.3125 557.78125 53.773438 551.992188 51.378906 C 546.207031 48.980469 540.363281 46.726562 534.464844 44.617188 C 528.566406 42.503906 522.621094 40.542969 516.625 38.722656 C 510.632812 36.90625 504.597656 35.234375 498.519531 33.710938 C 492.445312 32.191406 486.332031 30.816406 480.191406 29.597656 C 474.046875 28.375 467.875 27.304688 461.679688 26.382812 C 455.484375 25.464844 449.269531 24.699219 443.035156 24.085938 C 436.800781 23.46875 430.554688 23.011719 424.296875 22.703125 C 418.042969 22.394531 411.78125 22.242188 405.515625 22.242188 Z M 405.515625 22.242188 " fill-opacity="1" fill-rule="nonzero"/><path fill="#f1bc19" d="M 746.898438 1.550781 C 745.542969 1.550781 744.1875 1.617188 742.839844 1.75 C 741.492188 1.882812 740.152344 2.082031 738.824219 2.347656 C 737.496094 2.609375 736.179688 2.941406 734.886719 3.332031 C 733.585938 3.726562 732.3125 4.183594 731.0625 4.703125 C 729.808594 5.21875 728.585938 5.800781 727.390625 6.4375 C 726.195312 7.078125 725.035156 7.773438 723.90625 8.527344 C 722.78125 9.277344 721.695312 10.085938 720.644531 10.945312 C 719.597656 11.804688 718.59375 12.714844 717.636719 13.671875 C 716.679688 14.628906 715.769531 15.632812 714.910156 16.679688 C 714.050781 17.726562 713.242188 18.816406 712.492188 19.941406 C 711.738281 21.070312 711.042969 22.230469 710.402344 23.425781 C 709.765625 24.621094 709.183594 25.84375 708.667969 27.097656 C 708.148438 28.347656 707.691406 29.621094 707.300781 30.917969 C 706.90625 32.214844 706.578125 33.527344 706.3125 34.859375 C 706.046875 36.1875 705.847656 37.527344 705.714844 38.875 C 705.582031 40.222656 705.515625 41.574219 705.515625 42.929688 C 705.515625 44.285156 705.582031 45.636719 705.714844 46.988281 C 705.847656 48.335938 706.046875 49.675781 706.3125 51.003906 C 706.578125 52.332031 706.90625 53.644531 707.300781 54.941406 C 707.691406 56.238281 708.148438 57.515625 708.667969 58.765625 C 709.183594 60.019531 709.765625 61.242188 710.402344 62.4375 C 711.042969 63.632812 711.738281 64.792969 712.492188 65.921875 C 713.242188 67.046875 714.050781 68.132812 714.910156 69.183594 C 715.769531 70.230469 716.679688 71.230469 717.636719 72.191406 C 718.59375 73.148438 719.597656 74.058594 720.644531 74.917969 C 721.695312 75.777344 722.78125 76.582031 723.90625 77.335938 C 725.035156 78.089844 726.195312 78.785156 727.390625 79.425781 C 728.585938 80.0625 729.808594 80.640625 731.0625 81.160156 C 732.3125 81.679688 733.585938 82.136719 734.886719 82.527344 C 736.179688 82.921875 737.496094 83.25 738.824219 83.515625 C 740.152344 83.78125 741.492188 83.976562 742.839844 84.109375 C 744.1875 84.242188 745.542969 84.308594 746.898438 84.308594 C 748.25 84.308594 749.605469 84.242188 750.953125 84.109375 C 752.300781 83.976562 753.640625 83.78125 754.96875 83.515625 C 756.296875 83.25 757.609375 82.921875 758.910156 82.527344 C 760.207031 82.136719 761.480469 81.679688 762.730469 81.160156 C 763.984375 80.640625 765.207031 80.0625 766.402344 79.425781 C 767.597656 78.785156 768.757812 78.089844 769.886719 77.335938 C 771.011719 76.582031 772.097656 75.777344 773.148438 74.917969 C 774.195312 74.058594 775.199219 73.148438 776.15625 72.191406 C 777.113281 71.230469 778.023438 70.230469 778.882812 69.183594 C 779.742188 68.132812 780.550781 67.046875 781.300781 65.921875 C 782.054688 64.792969 782.75 63.632812 783.390625 62.4375 C 784.027344 61.242188 784.605469 60.019531 785.125 58.765625 C 785.644531 57.515625 786.101562 56.238281 786.492188 54.941406 C 786.886719 53.644531 787.214844 52.332031 787.480469 51.003906 C 787.746094 49.675781 787.945312 48.335938 788.078125 46.988281 C 788.210938 45.636719 788.277344 44.285156 788.277344 42.929688 C 788.277344 41.574219 788.210938 40.222656 788.078125 38.875 C 787.945312 37.527344 787.746094 36.1875 787.480469 34.859375 C 787.214844 33.527344 786.886719 32.214844 786.492188 30.917969 C 786.101562 29.621094 785.644531 28.347656 785.125 27.097656 C 784.605469 25.84375 784.027344 24.621094 783.390625 23.425781 C 782.75 22.230469 782.054688 21.070312 781.300781 19.941406 C 780.550781 18.816406 779.742188 17.726562 778.882812 16.679688 C 778.023438 15.632812 777.113281 14.628906 776.15625 13.671875 C 775.199219 12.714844 774.195312 11.804688 773.148438 10.945312 C 772.097656 10.085938 771.011719 9.277344 769.886719 8.527344 C 768.757812 7.773438 767.597656 7.078125 766.402344 6.4375 C 765.207031 5.800781 763.984375 5.21875 762.730469 4.703125 C 761.480469 4.183594 760.207031 3.726562 758.910156 3.332031 C 757.609375 2.941406 756.296875 2.609375 754.96875 2.347656 C 753.640625 2.082031 752.300781 1.882812 750.953125 1.75 C 749.605469 1.617188 748.25 1.550781 746.898438 1.550781 Z M 746.898438 1.550781 " fill-opacity="1" fill-rule="nonzero"/><path fill="#8889b9" d="M 788.277344 115.34375 C 787.597656 115.34375 786.921875 115.378906 786.246094 115.445312 C 785.574219 115.511719 784.902344 115.609375 784.238281 115.742188 C 783.574219 115.875 782.917969 116.039062 782.269531 116.234375 C 781.621094 116.433594 780.984375 116.660156 780.359375 116.917969 C 779.730469 117.179688 779.121094 117.46875 778.523438 117.789062 C 777.925781 118.105469 777.34375 118.457031 776.78125 118.832031 C 776.21875 119.207031 775.675781 119.609375 775.152344 120.042969 C 774.625 120.472656 774.125 120.925781 773.644531 121.40625 C 773.167969 121.882812 772.710938 122.386719 772.28125 122.910156 C 771.851562 123.433594 771.449219 123.976562 771.074219 124.539062 C 770.695312 125.101562 770.347656 125.683594 770.027344 126.28125 C 769.710938 126.878906 769.421875 127.492188 769.160156 128.117188 C 768.902344 128.742188 768.671875 129.378906 768.476562 130.027344 C 768.28125 130.675781 768.117188 131.332031 767.984375 132 C 767.851562 132.664062 767.753906 133.332031 767.6875 134.007812 C 767.621094 134.679688 767.585938 135.355469 767.585938 136.035156 C 767.585938 136.710938 767.621094 137.386719 767.6875 138.0625 C 767.753906 138.738281 767.851562 139.40625 767.984375 140.070312 C 768.117188 140.734375 768.28125 141.390625 768.476562 142.039062 C 768.671875 142.6875 768.902344 143.324219 769.160156 143.953125 C 769.421875 144.578125 769.710938 145.191406 770.027344 145.789062 C 770.347656 146.386719 770.695312 146.964844 771.074219 147.527344 C 771.449219 148.09375 771.851562 148.636719 772.28125 149.160156 C 772.710938 149.683594 773.167969 150.183594 773.644531 150.664062 C 774.125 151.144531 774.625 151.597656 775.148438 152.027344 C 775.675781 152.457031 776.21875 152.859375 776.78125 153.238281 C 777.34375 153.613281 777.925781 153.960938 778.523438 154.28125 C 779.121094 154.601562 779.730469 154.890625 780.359375 155.148438 C 780.984375 155.410156 781.621094 155.636719 782.269531 155.832031 C 782.917969 156.03125 783.574219 156.195312 784.238281 156.328125 C 784.902344 156.457031 785.574219 156.558594 786.246094 156.625 C 786.921875 156.691406 787.597656 156.722656 788.277344 156.722656 C 788.953125 156.722656 789.628906 156.691406 790.304688 156.625 C 790.976562 156.558594 791.648438 156.457031 792.3125 156.328125 C 792.976562 156.195312 793.632812 156.03125 794.28125 155.832031 C 794.929688 155.636719 795.566406 155.410156 796.191406 155.148438 C 796.820312 154.890625 797.429688 154.601562 798.027344 154.28125 C 798.625 153.960938 799.207031 153.613281 799.769531 153.238281 C 800.332031 152.859375 800.878906 152.457031 801.402344 152.027344 C 801.925781 151.597656 802.425781 151.144531 802.90625 150.664062 C 803.382812 150.183594 803.839844 149.683594 804.269531 149.160156 C 804.699219 148.636719 805.101562 148.09375 805.476562 147.527344 C 805.855469 146.964844 806.203125 146.386719 806.523438 145.789062 C 806.839844 145.191406 807.132812 144.578125 807.390625 143.953125 C 807.648438 143.324219 807.878906 142.6875 808.074219 142.039062 C 808.269531 141.390625 808.4375 140.734375 808.566406 140.070312 C 808.699219 139.40625 808.800781 138.738281 808.867188 138.0625 C 808.933594 137.386719 808.964844 136.710938 808.964844 136.035156 C 808.964844 135.355469 808.933594 134.679688 808.867188 134.007812 C 808.800781 133.332031 808.699219 132.664062 808.566406 132 C 808.4375 131.332031 808.269531 130.675781 808.074219 130.027344 C 807.878906 129.378906 807.648438 128.742188 807.390625 128.117188 C 807.132812 127.492188 806.839844 126.878906 806.523438 126.28125 C 806.203125 125.683594 805.855469 125.101562 805.476562 124.539062 C 805.101562 123.976562 804.699219 123.433594 804.269531 122.910156 C 803.839844 122.386719 803.382812 121.882812 802.90625 121.40625 C 802.425781 120.925781 801.925781 120.472656 801.402344 120.042969 C 800.878906 119.609375 800.332031 119.207031 799.769531 118.832031 C 799.207031 118.457031 798.625 118.105469 798.027344 117.789062 C 797.429688 117.46875 796.820312 117.179688 796.191406 116.917969 C 795.566406 116.660156 794.929688 116.433594 794.28125 116.234375 C 793.632812 116.039062 792.976562 115.875 792.3125 115.742188 C 791.648438 115.609375 790.976562 115.511719 790.304688 115.445312 C 789.628906 115.378906 788.953125 115.34375 788.277344 115.34375 Z M 788.277344 115.34375 " fill-opacity="1" fill-rule="nonzero"/><path fill="#fbcd59" d="M 726.207031 653.277344 C 725.527344 653.277344 724.851562 653.308594 724.179688 653.375 C 723.503906 653.441406 722.835938 653.542969 722.171875 653.671875 C 721.507812 653.804688 720.847656 653.96875 720.199219 654.167969 C 719.550781 654.363281 718.914062 654.589844 718.289062 654.851562 C 717.664062 655.109375 717.050781 655.398438 716.453125 655.71875 C 715.855469 656.039062 715.277344 656.386719 714.710938 656.761719 C 714.148438 657.140625 713.605469 657.542969 713.082031 657.972656 C 712.558594 658.402344 712.054688 658.855469 711.578125 659.335938 C 711.097656 659.816406 710.644531 660.316406 710.214844 660.839844 C 709.785156 661.363281 709.378906 661.90625 709.003906 662.472656 C 708.628906 663.035156 708.28125 663.613281 707.960938 664.210938 C 707.640625 664.808594 707.351562 665.421875 707.09375 666.046875 C 706.832031 666.671875 706.605469 667.3125 706.40625 667.960938 C 706.210938 668.609375 706.046875 669.265625 705.914062 669.929688 C 705.78125 670.59375 705.683594 671.261719 705.617188 671.9375 C 705.550781 672.613281 705.515625 673.289062 705.515625 673.964844 C 705.515625 674.644531 705.550781 675.320312 705.617188 675.992188 C 705.683594 676.667969 705.78125 677.335938 705.914062 678 C 706.046875 678.667969 706.210938 679.324219 706.40625 679.972656 C 706.605469 680.621094 706.832031 681.257812 707.09375 681.882812 C 707.351562 682.507812 707.640625 683.121094 707.960938 683.71875 C 708.28125 684.316406 708.628906 684.898438 709.003906 685.460938 C 709.378906 686.023438 709.785156 686.566406 710.214844 687.089844 C 710.644531 687.613281 711.097656 688.117188 711.578125 688.59375 C 712.054688 689.074219 712.558594 689.527344 713.082031 689.957031 C 713.605469 690.386719 714.148438 690.792969 714.710938 691.167969 C 715.277344 691.542969 715.855469 691.894531 716.453125 692.210938 C 717.050781 692.53125 717.664062 692.820312 718.289062 693.082031 C 718.914062 693.339844 719.550781 693.566406 720.199219 693.765625 C 720.847656 693.960938 721.507812 694.125 722.171875 694.257812 C 722.835938 694.390625 723.503906 694.488281 724.179688 694.554688 C 724.851562 694.621094 725.527344 694.65625 726.207031 694.65625 C 726.882812 694.65625 727.558594 694.621094 728.234375 694.554688 C 728.910156 694.488281 729.578125 694.390625 730.242188 694.257812 C 730.90625 694.125 731.5625 693.960938 732.210938 693.765625 C 732.859375 693.566406 733.5 693.339844 734.125 693.082031 C 734.75 692.820312 735.363281 692.53125 735.960938 692.210938 C 736.558594 691.894531 737.136719 691.542969 737.703125 691.167969 C 738.265625 690.792969 738.808594 690.386719 739.332031 689.957031 C 739.855469 689.527344 740.359375 689.074219 740.835938 688.59375 C 741.316406 688.117188 741.769531 687.613281 742.199219 687.089844 C 742.628906 686.566406 743.035156 686.023438 743.410156 685.460938 C 743.785156 684.898438 744.132812 684.316406 744.453125 683.71875 C 744.773438 683.121094 745.0625 682.507812 745.320312 681.882812 C 745.582031 681.257812 745.808594 680.621094 746.003906 679.972656 C 746.203125 679.324219 746.367188 678.667969 746.5 678 C 746.632812 677.335938 746.730469 676.667969 746.796875 675.992188 C 746.863281 675.320312 746.898438 674.644531 746.898438 673.964844 C 746.898438 673.289062 746.863281 672.613281 746.796875 671.9375 C 746.730469 671.261719 746.632812 670.59375 746.5 669.929688 C 746.367188 669.265625 746.203125 668.609375 746.003906 667.960938 C 745.808594 667.3125 745.582031 666.671875 745.320312 666.046875 C 745.0625 665.421875 744.773438 664.808594 744.453125 664.210938 C 744.132812 663.613281 743.785156 663.035156 743.410156 662.472656 C 743.035156 661.90625 742.628906 661.363281 742.199219 660.839844 C 741.769531 660.316406 741.316406 659.816406 740.835938 659.335938 C 740.359375 658.855469 739.855469 658.402344 739.332031 657.972656 C 738.808594 657.542969 738.265625 657.140625 737.703125 656.761719 C 737.136719 656.386719 736.558594 656.039062 735.960938 655.71875 C 735.363281 655.398438 734.75 655.109375 734.125 654.851562 C 733.5 654.589844 732.859375 654.363281 732.210938 654.167969 C 731.5625 653.96875 730.90625 653.804688 730.242188 653.671875 C 729.578125 653.542969 728.910156 653.441406 728.234375 653.375 C 727.558594 653.308594 726.882812 653.277344 726.207031 653.277344 Z M 43.449219 498.101562 C 42.09375 498.101562 40.742188 498.167969 39.390625 498.300781 C 38.042969 498.4375 36.703125 498.632812 35.375 498.898438 C 34.046875 499.164062 32.734375 499.492188 31.4375 499.886719 C 30.140625 500.277344 28.863281 500.734375 27.613281 501.253906 C 26.359375 501.773438 25.136719 502.351562 23.941406 502.988281 C 22.746094 503.628906 21.585938 504.324219 20.460938 505.078125 C 19.332031 505.828125 18.246094 506.636719 17.199219 507.496094 C 16.148438 508.355469 15.148438 509.265625 14.1875 510.222656 C 13.230469 511.179688 12.320312 512.183594 11.460938 513.230469 C 10.601562 514.28125 9.796875 515.367188 9.042969 516.492188 C 8.289062 517.621094 7.59375 518.78125 6.953125 519.976562 C 6.316406 521.171875 5.738281 522.394531 5.21875 523.648438 C 4.699219 524.898438 4.242188 526.175781 3.851562 527.472656 C 3.457031 528.769531 3.128906 530.082031 2.863281 531.410156 C 2.601562 532.738281 2.402344 534.078125 2.269531 535.425781 C 2.136719 536.777344 2.070312 538.128906 2.070312 539.484375 C 2.070312 540.839844 2.136719 542.191406 2.269531 543.539062 C 2.402344 544.886719 2.601562 546.226562 2.863281 547.554688 C 3.128906 548.882812 3.457031 550.199219 3.851562 551.496094 C 4.242188 552.792969 4.699219 554.066406 5.21875 555.316406 C 5.738281 556.570312 6.316406 557.792969 6.953125 558.988281 C 7.59375 560.183594 8.289062 561.34375 9.042969 562.472656 C 9.796875 563.597656 10.601562 564.6875 11.460938 565.734375 C 12.320312 566.78125 13.230469 567.785156 14.1875 568.742188 C 15.148438 569.699219 16.148438 570.609375 17.199219 571.46875 C 18.246094 572.328125 19.332031 573.136719 20.460938 573.886719 C 21.585938 574.640625 22.746094 575.335938 23.941406 575.976562 C 25.136719 576.613281 26.359375 577.195312 27.613281 577.710938 C 28.863281 578.230469 30.140625 578.6875 31.4375 579.082031 C 32.734375 579.472656 34.046875 579.800781 35.375 580.066406 C 36.703125 580.332031 38.042969 580.53125 39.390625 580.664062 C 40.742188 580.796875 42.09375 580.863281 43.449219 580.863281 C 44.804688 580.863281 46.15625 580.796875 47.503906 580.664062 C 48.851562 580.53125 50.191406 580.332031 51.519531 580.066406 C 52.851562 579.800781 54.164062 579.472656 55.460938 579.082031 C 56.757812 578.6875 58.03125 578.230469 59.285156 577.710938 C 60.535156 577.195312 61.757812 576.613281 62.953125 575.976562 C 64.148438 575.335938 65.3125 574.640625 66.4375 573.886719 C 67.5625 573.136719 68.652344 572.328125 69.699219 571.46875 C 70.746094 570.609375 71.75 569.699219 72.707031 568.742188 C 73.667969 567.785156 74.574219 566.78125 75.433594 565.734375 C 76.292969 564.6875 77.101562 563.597656 77.855469 562.472656 C 78.605469 561.34375 79.300781 560.183594 79.941406 558.988281 C 80.582031 557.792969 81.160156 556.570312 81.679688 555.316406 C 82.195312 554.066406 82.652344 552.792969 83.046875 551.496094 C 83.4375 550.199219 83.769531 548.882812 84.03125 547.554688 C 84.296875 546.226562 84.496094 544.886719 84.628906 543.539062 C 84.761719 542.191406 84.828125 540.839844 84.828125 539.484375 C 84.828125 538.128906 84.761719 536.777344 84.628906 535.425781 C 84.496094 534.078125 84.296875 532.738281 84.03125 531.410156 C 83.769531 530.082031 83.4375 528.769531 83.046875 527.472656 C 82.652344 526.175781 82.195312 524.898438 81.679688 523.648438 C 81.160156 522.394531 80.582031 521.171875 79.941406 519.976562 C 79.300781 518.78125 78.605469 517.621094 77.855469 516.492188 C 77.101562 515.367188 76.292969 514.28125 75.433594 513.230469 C 74.574219 512.183594 73.667969 511.179688 72.707031 510.222656 C 71.75 509.265625 70.746094 508.355469 69.699219 507.496094 C 68.652344 506.636719 67.5625 505.828125 66.4375 505.078125 C 65.3125 504.324219 64.148438 503.628906 62.953125 502.988281 C 61.757812 502.351562 60.535156 501.773438 59.285156 501.253906 C 58.03125 500.734375 56.757812 500.277344 55.460938 499.886719 C 54.164062 499.492188 52.851562 499.164062 51.519531 498.898438 C 50.191406 498.632812 48.851562 498.4375 47.503906 498.300781 C 46.15625 498.167969 44.804688 498.101562 43.449219 498.101562 Z M 43.449219 498.101562 " fill-opacity="1" fill-rule="nonzero"/><path fill="#8889b9" d="M 146.898438 767.070312 C 146.21875 767.070312 145.542969 767.101562 144.867188 767.167969 C 144.195312 767.234375 143.523438 767.335938 142.859375 767.464844 C 142.195312 767.597656 141.539062 767.761719 140.890625 767.960938 C 140.242188 768.15625 139.605469 768.382812 138.980469 768.644531 C 138.351562 768.902344 137.742188 769.191406 137.144531 769.511719 C 136.546875 769.832031 135.964844 770.179688 135.402344 770.554688 C 134.839844 770.933594 134.296875 771.335938 133.769531 771.765625 C 133.246094 772.195312 132.746094 772.648438 132.265625 773.128906 C 131.789062 773.609375 131.332031 774.109375 130.902344 774.632812 C 130.472656 775.15625 130.070312 775.699219 129.695312 776.265625 C 129.316406 776.828125 128.96875 777.40625 128.648438 778.003906 C 128.332031 778.601562 128.042969 779.214844 127.78125 779.839844 C 127.523438 780.46875 127.292969 781.105469 127.097656 781.753906 C 126.902344 782.402344 126.738281 783.058594 126.605469 783.722656 C 126.472656 784.386719 126.371094 785.054688 126.304688 785.730469 C 126.238281 786.40625 126.207031 787.082031 126.207031 787.757812 C 126.207031 788.4375 126.238281 789.113281 126.304688 789.785156 C 126.371094 790.460938 126.472656 791.128906 126.605469 791.792969 C 126.738281 792.460938 126.902344 793.117188 127.097656 793.765625 C 127.292969 794.414062 127.523438 795.050781 127.78125 795.675781 C 128.042969 796.300781 128.332031 796.914062 128.648438 797.511719 C 128.96875 798.109375 129.316406 798.691406 129.695312 799.253906 C 130.070312 799.816406 130.472656 800.359375 130.902344 800.882812 C 131.332031 801.40625 131.789062 801.910156 132.265625 802.386719 C 132.746094 802.867188 133.246094 803.320312 133.769531 803.75 C 134.296875 804.183594 134.839844 804.585938 135.402344 804.960938 C 135.964844 805.335938 136.546875 805.6875 137.144531 806.003906 C 137.742188 806.324219 138.351562 806.613281 138.980469 806.875 C 139.605469 807.132812 140.242188 807.359375 140.890625 807.558594 C 141.539062 807.753906 142.195312 807.917969 142.859375 808.050781 C 143.523438 808.183594 144.195312 808.28125 144.867188 808.347656 C 145.542969 808.414062 146.21875 808.449219 146.898438 808.449219 C 147.574219 808.449219 148.25 808.414062 148.925781 808.347656 C 149.597656 808.28125 150.269531 808.183594 150.933594 808.050781 C 151.597656 807.917969 152.253906 807.753906 152.902344 807.558594 C 153.550781 807.359375 154.1875 807.132812 154.8125 806.875 C 155.441406 806.613281 156.050781 806.324219 156.648438 806.003906 C 157.246094 805.6875 157.828125 805.335938 158.390625 804.960938 C 158.953125 804.585938 159.5 804.183594 160.023438 803.75 C 160.546875 803.320312 161.046875 802.867188 161.527344 802.386719 C 162.003906 801.910156 162.460938 801.40625 162.890625 800.882812 C 163.320312 800.359375 163.722656 799.816406 164.097656 799.253906 C 164.476562 798.691406 164.824219 798.109375 165.144531 797.511719 C 165.460938 796.914062 165.75 796.300781 166.011719 795.675781 C 166.269531 795.050781 166.5 794.414062 166.695312 793.765625 C 166.890625 793.117188 167.054688 792.460938 167.1875 791.792969 C 167.320312 791.128906 167.421875 790.460938 167.488281 789.785156 C 167.554688 789.113281 167.585938 788.4375 167.585938 787.757812 C 167.585938 787.082031 167.554688 786.40625 167.488281 785.730469 C 167.421875 785.054688 167.320312 784.386719 167.1875 783.722656 C 167.054688 783.058594 166.890625 782.402344 166.695312 781.753906 C 166.5 781.105469 166.269531 780.46875 166.011719 779.839844 C 165.75 779.214844 165.460938 778.601562 165.144531 778.003906 C 164.824219 777.40625 164.476562 776.828125 164.097656 776.265625 C 163.722656 775.699219 163.320312 775.15625 162.890625 774.632812 C 162.460938 774.109375 162.003906 773.609375 161.527344 773.128906 C 161.046875 772.648438 160.546875 772.195312 160.023438 771.765625 C 159.5 771.335938 158.953125 770.933594 158.390625 770.554688 C 157.828125 770.179688 157.246094 769.832031 156.648438 769.511719 C 156.050781 769.191406 155.441406 768.902344 154.8125 768.644531 C 154.1875 768.382812 153.550781 768.15625 152.902344 767.960938 C 152.253906 767.761719 151.597656 767.597656 150.933594 767.464844 C 150.269531 767.335938 149.597656 767.234375 148.925781 767.167969 C 148.25 767.101562 147.574219 767.070312 146.898438 767.070312 Z M 146.898438 767.070312 " fill-opacity="1" fill-rule="nonzero"/><path fill="#ffffff" d="M 710.691406 218.792969 C 709.671875 218.792969 708.660156 218.890625 707.664062 219.089844 C 706.664062 219.289062 705.691406 219.585938 704.75 219.972656 C 703.808594 220.363281 702.914062 220.84375 702.070312 221.410156 C 701.222656 221.972656 700.4375 222.617188 699.71875 223.339844 C 698.996094 224.058594 698.351562 224.84375 697.789062 225.6875 C 697.222656 226.535156 696.742188 227.429688 696.351562 228.371094 C 695.964844 229.3125 695.667969 230.285156 695.46875 231.28125 C 695.273438 232.28125 695.171875 233.292969 695.171875 234.308594 C 695.171875 235.328125 695.273438 236.339844 695.46875 237.335938 C 695.667969 238.335938 695.964844 239.308594 696.351562 240.25 C 696.742188 241.191406 697.222656 242.085938 697.789062 242.929688 C 698.351562 243.777344 698.996094 244.5625 699.71875 245.28125 C 700.4375 246.003906 701.222656 246.644531 702.070312 247.210938 C 702.914062 247.777344 703.808594 248.257812 704.75 248.644531 C 705.691406 249.035156 706.664062 249.332031 707.664062 249.53125 C 708.660156 249.726562 709.671875 249.828125 710.691406 249.828125 C 711.707031 249.828125 712.71875 249.726562 713.714844 249.53125 C 714.714844 249.332031 715.6875 249.035156 716.628906 248.644531 C 717.570312 248.257812 718.464844 247.777344 719.308594 247.210938 C 720.15625 246.644531 720.941406 246.003906 721.660156 245.28125 C 722.382812 244.5625 723.027344 243.777344 723.589844 242.929688 C 724.15625 242.085938 724.636719 241.191406 725.027344 240.25 C 725.414062 239.308594 725.710938 238.335938 725.910156 237.335938 C 726.105469 236.339844 726.207031 235.328125 726.207031 234.308594 C 726.207031 233.292969 726.105469 232.28125 725.910156 231.28125 C 725.710938 230.285156 725.414062 229.3125 725.027344 228.371094 C 724.636719 227.429688 724.15625 226.535156 723.589844 225.6875 C 723.027344 224.84375 722.382812 224.058594 721.660156 223.339844 C 720.941406 222.617188 720.15625 221.972656 719.308594 221.410156 C 718.464844 220.84375 717.570312 220.363281 716.628906 219.972656 C 715.6875 219.585938 714.714844 219.289062 713.714844 219.089844 C 712.71875 218.890625 711.707031 218.792969 710.691406 218.792969 Z M 710.691406 218.792969 " fill-opacity="1" fill-rule="nonzero"/><path fill="#fcba7f" d="M 705.515625 422.660156 C 705.515625 338.949219 615.03125 271.097656 503.421875 271.097656 C 391.808594 271.097656 301.324219 338.949219 301.324219 422.660156 C 301.324219 506.367188 391.808594 574.21875 503.421875 574.21875 L 528.683594 574.21875 C 550.167969 595.707031 589.945312 617.203125 632.441406 623.140625 C 641.078125 624.351562 647.667969 615.425781 644.027344 607.5 C 635.957031 589.933594 629.730469 564.339844 629.730469 541.074219 C 677.667969 512.285156 705.558594 468.714844 705.515625 422.660156 " fill-opacity="1" fill-rule="nonzero"/><path fill="#472b29" d="M 633.972656 630.484375 C 633.125 630.484375 632.285156 630.433594 631.4375 630.308594 C 592.386719 624.859375 551.285156 605.8125 525.746094 581.460938 L 503.421875 581.460938 C 387.992188 581.460938 294.082031 510.21875 294.082031 422.648438 C 294.082031 335.078125 387.992188 263.835938 503.421875 263.835938 C 618.847656 263.835938 712.757812 335.089844 712.757812 422.660156 L 712.757812 422.648438 C 712.800781 470.390625 685.261719 514.820312 637.042969 545.089844 C 637.675781 564.746094 642.867188 587.605469 650.617188 604.480469 C 653.410156 610.574219 652.65625 617.699219 648.640625 623.101562 C 645.144531 627.785156 639.691406 630.484375 633.972656 630.484375 Z M 503.421875 278.339844 C 395.980469 278.339844 308.574219 343.085938 308.574219 422.660156 C 308.574219 502.230469 395.980469 566.980469 503.421875 566.980469 L 531.683594 566.980469 L 533.804688 569.101562 C 552.867188 588.175781 591.0625 610.054688 633.433594 615.960938 C 635.503906 616.28125 636.601562 615 637.003906 614.453125 C 637.425781 613.894531 638.296875 612.394531 637.4375 610.519531 C 628.210938 590.453125 622.480469 563.835938 622.480469 541.074219 L 622.480469 536.980469 L 625.996094 534.878906 C 671.957031 507.269531 698.308594 466.367188 698.265625 422.667969 L 698.265625 422.660156 C 698.277344 343.085938 610.871094 278.339844 503.421875 278.339844 Z M 503.421875 278.339844 " fill-opacity="1" fill-rule="nonzero"/><path fill="#fed5b3" d="M 115.863281 349.71875 C 115.820312 405.238281 150.09375 457.757812 209.015625 492.457031 C 209.015625 522.445312 200.277344 555.640625 189.351562 576.785156 C 185.472656 584.285156 191.542969 593.015625 199.933594 592.097656 C 254.316406 586.128906 305.84375 559.273438 333.226562 532.417969 L 364.28125 532.417969 C 501.484375 532.417969 612.703125 450.609375 612.703125 349.707031 C 612.703125 248.804688 501.484375 167.007812 364.28125 167.007812 C 227.078125 167.007812 115.863281 248.804688 115.863281 349.71875 " fill-opacity="1" fill-rule="nonzero"/><path fill="#472b29" d="M 198.765625 599.410156 C 192.910156 599.410156 187.40625 596.554688 184.054688 591.671875 C 180.351562 586.273438 179.917969 579.289062 182.925781 573.464844 C 193.644531 552.722656 201.011719 522.332031 201.722656 496.519531 C 142.449219 460.324219 108.578125 407.007812 108.621094 349.695312 C 108.621094 244.964844 223.3125 159.753906 364.28125 159.753906 C 505.261719 159.753906 619.957031 244.964844 619.957031 349.707031 C 619.957031 454.449219 505.261719 539.667969 364.28125 539.667969 L 336.132812 539.667969 C 308.875 565.242188 257.265625 593.089844 200.730469 599.308594 C 200.078125 599.378906 199.417969 599.410156 198.765625 599.410156 Z M 364.28125 174.238281 C 231.300781 174.238281 123.101562 252.953125 123.101562 349.707031 L 123.101562 349.71875 C 123.0625 402.921875 155.710938 452.667969 212.691406 486.207031 L 216.257812 488.308594 L 216.257812 492.445312 C 216.257812 521.617188 208.21875 556.023438 195.785156 580.105469 C 195 581.617188 195.570312 582.867188 195.992188 583.457031 C 196.335938 583.957031 197.339844 585.144531 199.148438 584.898438 C 253.78125 578.898438 303.300781 551.605469 328.160156 527.246094 L 330.269531 525.175781 L 364.28125 525.175781 C 497.277344 525.175781 605.460938 446.460938 605.460938 349.707031 C 605.460938 252.953125 497.277344 174.238281 364.28125 174.238281 Z M 364.28125 174.238281 " fill-opacity="1" fill-rule="nonzero"/><path fill="#472b29" d="M 390 260.171875 L 245.171875 260.171875 C 242.316406 260.171875 240 257.855469 240 255 C 240 252.144531 242.316406 249.828125 245.171875 249.828125 L 390 249.828125 C 392.855469 249.828125 395.171875 252.144531 395.171875 255 C 395.171875 257.855469 392.855469 260.171875 390 260.171875 Z M 390 260.171875 " fill-opacity="1" fill-rule="nonzero"/><path fill="#472b29" d="M 503.792969 260.171875 L 431.378906 260.171875 C 428.523438 260.171875 426.207031 257.855469 426.207031 255 C 426.207031 252.144531 428.523438 249.828125 431.378906 249.828125 L 503.792969 249.828125 C 506.648438 249.828125 508.964844 252.144531 508.964844 255 C 508.964844 257.855469 506.648438 260.171875 503.792969 260.171875 Z M 503.792969 260.171875 " fill-opacity="1" fill-rule="nonzero"/><path fill="#472b29" d="M 315 324.828125 L 188.277344 324.828125 C 185.421875 324.828125 183.101562 322.511719 183.101562 319.65625 C 183.101562 316.800781 185.421875 314.484375 188.277344 314.484375 L 315 314.484375 C 317.855469 314.484375 320.171875 316.800781 320.171875 319.65625 C 320.171875 322.511719 317.855469 324.828125 315 324.828125 Z M 315 324.828125 " fill-opacity="1" fill-rule="nonzero"/><path fill="#472b29" d="M 524.484375 324.828125 L 358.964844 324.828125 C 356.109375 324.828125 353.792969 322.511719 353.792969 319.65625 C 353.792969 316.800781 356.109375 314.484375 358.964844 314.484375 L 524.484375 314.484375 C 527.339844 314.484375 529.65625 316.800781 529.65625 319.65625 C 529.65625 322.511719 527.339844 324.828125 524.484375 324.828125 Z M 524.484375 324.828125 " fill-opacity="1" fill-rule="nonzero"/><path fill="#472b29" d="M 542.585938 389.484375 L 452.070312 389.484375 C 449.214844 389.484375 446.898438 387.164062 446.898438 384.308594 C 446.898438 381.457031 449.214844 379.136719 452.070312 379.136719 L 542.585938 379.136719 C 545.441406 379.136719 547.757812 381.457031 547.757812 384.308594 C 547.757812 387.164062 545.441406 389.484375 542.585938 389.484375 Z M 542.585938 389.484375 " fill-opacity="1" fill-rule="nonzero"/><path fill="#472b29" d="M 408.101562 389.484375 L 183.101562 389.484375 C 180.25 389.484375 177.929688 387.164062 177.929688 384.308594 C 177.929688 381.457031 180.25 379.136719 183.101562 379.136719 L 408.101562 379.136719 C 410.957031 379.136719 413.277344 381.457031 413.277344 384.308594 C 413.277344 387.164062 410.957031 389.484375 408.101562 389.484375 Z M 408.101562 389.484375 " fill-opacity="1" fill-rule="nonzero"/><path fill="#472b29" d="M 506.378906 454.136719 L 234.828125 454.136719 C 231.972656 454.136719 229.65625 451.820312 229.65625 448.964844 C 229.65625 446.109375 231.972656 443.792969 234.828125 443.792969 L 506.378906 443.792969 C 509.234375 443.792969 511.550781 446.109375 511.550781 448.964844 C 511.550781 451.820312 509.234375 454.136719 506.378906 454.136719 Z M 506.378906 454.136719 " fill-opacity="1" fill-rule="nonzero"/></svg>