<svg xmlns="http://www.w3.org/2000/svg" xmlns:xlink="http://www.w3.org/1999/xlink" width="1080" zoomAndPan="magnify" viewBox="0 0 810 809.999993" height="1080" preserveAspectRatio="xMidYMid meet" version="1.0"><defs><clipPath id="6ab20e14dc"><path d="M 617 464 L 809.808594 464 L 809.808594 679 L 617 679 Z M 617 464 " clip-rule="nonzero"/></clipPath><clipPath id="9055f5dbd0"><path d="M 723 575 L 809.808594 575 L 809.808594 685 L 723 685 Z M 723 575 " clip-rule="nonzero"/></clipPath><clipPath id="96542ce4d5"><path d="M 710 688 L 809.808594 688 L 809.808594 810 L 710 810 Z M 710 688 " clip-rule="nonzero"/></clipPath><clipPath id="0d9815def1"><path d="M 597 329 L 809.808594 329 L 809.808594 564 L 597 564 Z M 597 329 " clip-rule="nonzero"/></clipPath><clipPath id="f403fafba0"><path d="M 499 218 L 809.808594 218 L 809.808594 551 L 499 551 Z M 499 218 " clip-rule="nonzero"/></clipPath><clipPath id="d91553011d"><path d="M 587 113 L 809.808594 113 L 809.808594 359 L 587 359 Z M 587 113 " clip-rule="nonzero"/></clipPath><clipPath id="5aa3800372"><path d="M 425 5 L 809.808594 5 L 809.808594 413 L 425 413 Z M 425 5 " clip-rule="nonzero"/></clipPath><clipPath id="a2ef258fb4"><path d="M 253.496094 0 L 385 0 L 385 109 L 253.496094 109 Z M 253.496094 0 " clip-rule="nonzero"/></clipPath></defs><g clip-path="url(#6ab20e14dc)"><path fill="#73ccd0" d="M 622.4375 674.121094 C 622.800781 674.488281 623.179688 674.835938 623.578125 675.164062 C 623.976562 675.496094 624.390625 675.804688 624.816406 676.089844 C 625.246094 676.378906 625.6875 676.644531 626.144531 676.890625 C 626.597656 677.132812 627.0625 677.355469 627.539062 677.554688 C 628.015625 677.753906 628.5 677.925781 628.996094 678.078125 C 629.488281 678.226562 629.988281 678.355469 630.496094 678.457031 C 631 678.554688 631.511719 678.632812 632.023438 678.683594 C 632.539062 678.734375 633.054688 678.757812 633.570312 678.757812 C 634.085938 678.757812 634.601562 678.734375 635.113281 678.683594 C 635.628906 678.632812 636.136719 678.554688 636.644531 678.457031 C 637.152344 678.355469 637.652344 678.226562 638.144531 678.078125 C 638.636719 677.925781 639.125 677.753906 639.601562 677.554688 C 640.078125 677.355469 640.542969 677.132812 640.996094 676.890625 C 641.453125 676.644531 641.894531 676.378906 642.320312 676.089844 C 642.75 675.804688 643.164062 675.496094 643.5625 675.164062 C 643.960938 674.835938 644.339844 674.488281 644.703125 674.121094 L 809.585938 509.1875 L 809.585938 464.535156 L 622.4375 651.746094 C 622.070312 652.113281 621.71875 652.496094 621.390625 652.894531 C 621.0625 653.296875 620.753906 653.710938 620.464844 654.140625 C 620.175781 654.574219 619.910156 655.015625 619.664062 655.472656 C 619.417969 655.929688 619.199219 656.398438 619 656.878906 C 618.800781 657.355469 618.625 657.84375 618.476562 658.339844 C 618.324219 658.835938 618.199219 659.335938 618.097656 659.847656 C 617.996094 660.355469 617.917969 660.867188 617.867188 661.382812 C 617.816406 661.898438 617.792969 662.414062 617.792969 662.933594 C 617.792969 663.453125 617.816406 663.96875 617.867188 664.484375 C 617.917969 665 617.996094 665.515625 618.097656 666.023438 C 618.199219 666.53125 618.324219 667.035156 618.476562 667.527344 C 618.625 668.023438 618.800781 668.511719 619 668.992188 C 619.199219 669.46875 619.417969 669.9375 619.664062 670.394531 C 619.910156 670.851562 620.175781 671.296875 620.464844 671.726562 C 620.753906 672.15625 621.0625 672.574219 621.390625 672.972656 C 621.71875 673.375 622.070312 673.757812 622.4375 674.121094 Z M 622.4375 674.121094 " fill-opacity="1" fill-rule="nonzero"/></g><g clip-path="url(#9055f5dbd0)"><path fill="#73ccd0" d="M 728.003906 679.386719 C 728.367188 679.753906 728.75 680.101562 729.148438 680.429688 C 729.542969 680.757812 729.957031 681.066406 730.386719 681.355469 C 730.816406 681.644531 731.257812 681.910156 731.710938 682.15625 C 732.164062 682.398438 732.632812 682.621094 733.109375 682.820312 C 733.585938 683.015625 734.070312 683.191406 734.5625 683.34375 C 735.058594 683.492188 735.558594 683.617188 736.0625 683.71875 C 736.570312 683.820312 737.078125 683.898438 737.59375 683.949219 C 738.105469 684 738.621094 684.023438 739.136719 684.023438 C 739.652344 684.023438 740.167969 684 740.683594 683.949219 C 741.195312 683.898438 741.707031 683.820312 742.210938 683.71875 C 742.71875 683.617188 743.21875 683.492188 743.710938 683.34375 C 744.207031 683.191406 744.691406 683.015625 745.167969 682.820312 C 745.644531 682.621094 746.109375 682.398438 746.566406 682.15625 C 747.019531 681.910156 747.460938 681.644531 747.890625 681.355469 C 748.316406 681.066406 748.730469 680.757812 749.128906 680.429688 C 749.527344 680.101562 749.90625 679.753906 750.273438 679.386719 L 809.585938 620.054688 L 809.585938 575.402344 L 728.003906 657.011719 C 727.636719 657.378906 727.289062 657.761719 726.960938 658.160156 C 726.628906 658.5625 726.320312 658.976562 726.03125 659.40625 C 725.742188 659.835938 725.476562 660.28125 725.234375 660.738281 C 724.988281 661.195312 724.765625 661.664062 724.566406 662.140625 C 724.367188 662.621094 724.195312 663.109375 724.042969 663.605469 C 723.890625 664.101562 723.765625 664.601562 723.664062 665.109375 C 723.5625 665.621094 723.488281 666.132812 723.4375 666.648438 C 723.386719 667.164062 723.359375 667.679688 723.359375 668.199219 C 723.359375 668.71875 723.386719 669.234375 723.4375 669.75 C 723.488281 670.265625 723.5625 670.777344 723.664062 671.289062 C 723.765625 671.796875 723.890625 672.296875 724.042969 672.792969 C 724.195312 673.289062 724.367188 673.777344 724.566406 674.257812 C 724.765625 674.734375 724.988281 675.203125 725.234375 675.660156 C 725.476562 676.117188 725.742188 676.5625 726.03125 676.992188 C 726.320312 677.421875 726.628906 677.835938 726.960938 678.238281 C 727.289062 678.636719 727.636719 679.023438 728.003906 679.386719 Z M 728.003906 679.386719 " fill-opacity="1" fill-rule="nonzero"/></g><g clip-path="url(#96542ce4d5)"><path fill="#73ccd0" d="M 715.046875 805.445312 C 715.414062 805.808594 715.792969 806.15625 716.191406 806.488281 C 716.589844 806.816406 717.003906 807.125 717.429688 807.414062 C 717.859375 807.699219 718.300781 807.964844 718.753906 808.210938 C 719.210938 808.457031 719.675781 808.675781 720.152344 808.875 C 720.628906 809.074219 721.113281 809.25 721.609375 809.398438 C 722.101562 809.550781 722.601562 809.675781 723.109375 809.777344 C 723.613281 809.878906 724.125 809.953125 724.636719 810.003906 C 725.152344 810.054688 725.667969 810.082031 726.183594 810.082031 C 726.699219 810.082031 727.214844 810.054688 727.726562 810.003906 C 728.242188 809.953125 728.75 809.878906 729.257812 809.777344 C 729.761719 809.675781 730.261719 809.550781 730.757812 809.398438 C 731.25 809.25 731.734375 809.074219 732.210938 808.875 C 732.6875 808.675781 733.15625 808.457031 733.609375 808.210938 C 734.0625 807.964844 734.503906 807.699219 734.933594 807.414062 C 735.363281 807.125 735.777344 806.816406 736.171875 806.488281 C 736.570312 806.15625 736.953125 805.808594 737.316406 805.445312 L 809.585938 733.152344 L 809.585938 688.5 L 715.046875 783.066406 C 714.679688 783.433594 714.332031 783.816406 714.003906 784.21875 C 713.675781 784.617188 713.367188 785.03125 713.078125 785.464844 C 712.789062 785.894531 712.523438 786.335938 712.277344 786.792969 C 712.03125 787.25 711.808594 787.71875 711.613281 788.199219 C 711.414062 788.675781 711.238281 789.164062 711.085938 789.660156 C 710.9375 790.15625 710.808594 790.660156 710.710938 791.167969 C 710.609375 791.675781 710.53125 792.1875 710.480469 792.703125 C 710.429688 793.21875 710.40625 793.738281 710.40625 794.253906 C 710.40625 794.773438 710.429688 795.292969 710.480469 795.808594 C 710.53125 796.324219 710.609375 796.835938 710.710938 797.34375 C 710.808594 797.851562 710.9375 798.355469 711.085938 798.851562 C 711.238281 799.347656 711.414062 799.832031 711.613281 800.3125 C 711.808594 800.792969 712.03125 801.257812 712.277344 801.714844 C 712.523438 802.171875 712.789062 802.617188 713.078125 803.046875 C 713.367188 803.480469 713.675781 803.894531 714.003906 804.292969 C 714.332031 804.695312 714.679688 805.078125 715.046875 805.445312 Z M 715.046875 805.445312 " fill-opacity="1" fill-rule="nonzero"/></g><g clip-path="url(#0d9815def1)"><path fill="#73ccd0" d="M 602.191406 559.40625 C 602.929688 560.128906 603.726562 560.773438 604.589844 561.339844 C 605.449219 561.910156 606.359375 562.386719 607.3125 562.777344 C 608.265625 563.167969 609.25 563.460938 610.261719 563.660156 C 611.273438 563.859375 612.296875 563.960938 613.328125 563.960938 C 614.359375 563.960938 615.378906 563.859375 616.390625 563.660156 C 617.402344 563.460938 618.386719 563.167969 619.339844 562.777344 C 620.296875 562.386719 621.203125 561.910156 622.066406 561.339844 C 622.925781 560.773438 623.722656 560.128906 624.460938 559.40625 L 809.585938 374.625 L 809.585938 329.570312 L 602.191406 536.625 C 601.808594 536.992188 601.449219 537.378906 601.105469 537.78125 C 600.761719 538.1875 600.4375 538.605469 600.136719 539.042969 C 599.835938 539.480469 599.558594 539.929688 599.300781 540.394531 C 599.042969 540.859375 598.8125 541.335938 598.605469 541.824219 C 598.398438 542.3125 598.214844 542.808594 598.058594 543.316406 C 597.898438 543.824219 597.765625 544.335938 597.660156 544.855469 C 597.554688 545.375 597.476562 545.898438 597.421875 546.429688 C 597.367188 546.957031 597.34375 547.484375 597.34375 548.015625 C 597.34375 548.546875 597.367188 549.074219 597.421875 549.601562 C 597.476562 550.132812 597.554688 550.65625 597.660156 551.175781 C 597.765625 551.695312 597.898438 552.207031 598.058594 552.714844 C 598.214844 553.222656 598.398438 553.71875 598.605469 554.207031 C 598.8125 554.695312 599.042969 555.171875 599.300781 555.636719 C 599.558594 556.101562 599.835938 556.550781 600.136719 556.988281 C 600.4375 557.425781 600.761719 557.84375 601.105469 558.25 C 601.449219 558.652344 601.808594 559.039062 602.191406 559.40625 Z M 602.191406 559.40625 " fill-opacity="1" fill-rule="nonzero"/></g><g clip-path="url(#f403fafba0)"><path fill="#73ccd0" d="M 504.316406 545.941406 C 505.796875 547.410156 507.5 548.539062 509.429688 549.328125 C 511.359375 550.117188 513.367188 550.507812 515.449219 550.496094 C 517.460938 550.433594 519.390625 550.011719 521.242188 549.222656 C 523.09375 548.4375 524.738281 547.34375 526.179688 545.941406 L 809.585938 263.25 L 809.585938 218.195312 L 504.316406 523.5625 C 503.949219 523.929688 503.601562 524.3125 503.273438 524.714844 C 502.941406 525.113281 502.632812 525.527344 502.34375 525.960938 C 502.058594 526.390625 501.789062 526.835938 501.546875 527.292969 C 501.300781 527.746094 501.078125 528.214844 500.878906 528.695312 C 500.679688 529.171875 500.507812 529.660156 500.355469 530.15625 C 500.207031 530.652344 500.078125 531.15625 499.976562 531.664062 C 499.875 532.171875 499.800781 532.683594 499.75 533.199219 C 499.699219 533.714844 499.671875 534.234375 499.671875 534.75 C 499.671875 535.269531 499.699219 535.789062 499.75 536.304688 C 499.800781 536.820312 499.875 537.332031 499.976562 537.839844 C 500.078125 538.347656 500.207031 538.851562 500.355469 539.347656 C 500.507812 539.84375 500.679688 540.332031 500.878906 540.808594 C 501.078125 541.289062 501.300781 541.753906 501.546875 542.210938 C 501.789062 542.667969 502.058594 543.113281 502.34375 543.542969 C 502.632812 543.976562 502.941406 544.390625 503.273438 544.789062 C 503.601562 545.191406 503.949219 545.574219 504.316406 545.941406 Z M 504.316406 545.941406 " fill-opacity="1" fill-rule="nonzero"/></g><g clip-path="url(#d91553011d)"><path fill="#73ccd0" d="M 592.070312 353.566406 C 592.433594 353.929688 592.816406 354.277344 593.214844 354.609375 C 593.613281 354.9375 594.023438 355.246094 594.453125 355.535156 C 594.882812 355.820312 595.324219 356.085938 595.777344 356.332031 C 596.234375 356.578125 596.699219 356.796875 597.175781 356.996094 C 597.652344 357.195312 598.136719 357.371094 598.628906 357.519531 C 599.125 357.671875 599.625 357.796875 600.128906 357.898438 C 600.636719 358 601.144531 358.074219 601.660156 358.125 C 602.175781 358.175781 602.6875 358.203125 603.203125 358.203125 C 603.722656 358.203125 604.234375 358.175781 604.75 358.125 C 605.261719 358.074219 605.773438 358 606.28125 357.898438 C 606.785156 357.796875 607.285156 357.671875 607.78125 357.519531 C 608.273438 357.371094 608.757812 357.195312 609.234375 356.996094 C 609.710938 356.796875 610.175781 356.578125 610.632812 356.332031 C 611.085938 356.085938 611.527344 355.820312 611.957031 355.535156 C 612.386719 355.246094 612.796875 354.9375 613.195312 354.609375 C 613.59375 354.277344 613.976562 353.929688 614.339844 353.566406 L 809.585938 158.253906 L 809.585938 113.601562 L 592.070312 331.1875 C 591.703125 331.554688 591.355469 331.9375 591.027344 332.339844 C 590.695312 332.738281 590.386719 333.152344 590.101562 333.585938 C 589.8125 334.015625 589.542969 334.460938 589.300781 334.917969 C 589.054688 335.371094 588.832031 335.839844 588.632812 336.320312 C 588.4375 336.796875 588.261719 337.285156 588.109375 337.78125 C 587.960938 338.277344 587.832031 338.78125 587.730469 339.289062 C 587.628906 339.796875 587.554688 340.308594 587.503906 340.824219 C 587.453125 341.339844 587.425781 341.859375 587.425781 342.375 C 587.425781 342.894531 587.453125 343.414062 587.503906 343.929688 C 587.554688 344.445312 587.628906 344.957031 587.730469 345.464844 C 587.832031 345.972656 587.960938 346.476562 588.109375 346.972656 C 588.261719 347.46875 588.4375 347.957031 588.632812 348.433594 C 588.832031 348.914062 589.054688 349.378906 589.300781 349.835938 C 589.542969 350.292969 589.8125 350.738281 590.101562 351.167969 C 590.386719 351.601562 590.695312 352.015625 591.027344 352.414062 C 591.355469 352.816406 591.703125 353.199219 592.070312 353.566406 Z M 592.070312 353.566406 " fill-opacity="1" fill-rule="nonzero"/></g><g clip-path="url(#5aa3800372)"><path fill="#73ccd0" d="M 430.125 407.53125 C 430.488281 407.898438 430.871094 408.246094 431.269531 408.574219 C 431.667969 408.902344 432.078125 409.210938 432.507812 409.5 C 432.9375 409.789062 433.378906 410.054688 433.832031 410.296875 C 434.289062 410.542969 434.753906 410.765625 435.230469 410.960938 C 435.707031 411.160156 436.191406 411.335938 436.683594 411.484375 C 437.179688 411.636719 437.679688 411.761719 438.183594 411.863281 C 438.691406 411.964844 439.199219 412.042969 439.714844 412.09375 C 440.226562 412.144531 440.742188 412.167969 441.257812 412.167969 C 441.777344 412.167969 442.289062 412.144531 442.804688 412.09375 C 443.316406 412.042969 443.828125 411.964844 444.335938 411.863281 C 444.839844 411.761719 445.339844 411.636719 445.835938 411.484375 C 446.328125 411.335938 446.8125 411.160156 447.289062 410.960938 C 447.765625 410.765625 448.230469 410.542969 448.6875 410.296875 C 449.140625 410.054688 449.582031 409.789062 450.011719 409.5 C 450.441406 409.210938 450.851562 408.902344 451.25 408.574219 C 451.648438 408.246094 452.03125 407.898438 452.394531 407.53125 L 809.585938 50.625 L 809.585938 5.570312 L 430.125 384.75 C 429.742188 385.117188 429.378906 385.503906 429.035156 385.90625 C 428.691406 386.3125 428.371094 386.730469 428.070312 387.167969 C 427.769531 387.605469 427.488281 388.054688 427.234375 388.519531 C 426.976562 388.984375 426.746094 389.460938 426.539062 389.949219 C 426.332031 390.4375 426.148438 390.933594 425.988281 391.441406 C 425.832031 391.949219 425.699219 392.460938 425.59375 392.980469 C 425.488281 393.5 425.40625 394.023438 425.355469 394.554688 C 425.300781 395.082031 425.273438 395.609375 425.273438 396.140625 C 425.273438 396.671875 425.300781 397.199219 425.355469 397.726562 C 425.40625 398.257812 425.488281 398.78125 425.59375 399.300781 C 425.699219 399.820312 425.832031 400.332031 425.988281 400.839844 C 426.148438 401.347656 426.332031 401.84375 426.539062 402.332031 C 426.746094 402.820312 426.976562 403.296875 427.234375 403.761719 C 427.488281 404.226562 427.769531 404.675781 428.070312 405.113281 C 428.371094 405.550781 428.691406 405.96875 429.035156 406.375 C 429.378906 406.777344 429.742188 407.164062 430.125 407.53125 Z M 430.125 407.53125 " fill-opacity="1" fill-rule="nonzero"/></g><path fill="#73ccd0" d="M 608.875 117.246094 C 610.371094 118.722656 612.09375 119.867188 614.035156 120.671875 C 615.980469 121.476562 618.003906 121.886719 620.109375 121.90625 C 622.199219 121.898438 624.207031 121.488281 626.136719 120.683594 C 628.066406 119.875 629.769531 118.730469 631.242188 117.246094 L 748.855469 0 L 704.21875 0 L 609.277344 94.972656 C 608.90625 95.328125 608.550781 95.703125 608.214844 96.097656 C 607.878906 96.488281 607.5625 96.894531 607.265625 97.320312 C 606.972656 97.742188 606.695312 98.179688 606.445312 98.628906 C 606.191406 99.082031 605.960938 99.542969 605.753906 100.015625 C 605.546875 100.488281 605.363281 100.96875 605.203125 101.460938 C 605.042969 101.953125 604.910156 102.449219 604.800781 102.957031 C 604.6875 103.460938 604.601562 103.96875 604.542969 104.480469 C 604.484375 104.996094 604.449219 105.507812 604.4375 106.027344 C 604.429688 106.542969 604.445312 107.058594 604.488281 107.574219 C 604.527344 108.085938 604.59375 108.597656 604.6875 109.105469 C 604.78125 109.617188 604.894531 110.117188 605.039062 110.613281 C 605.179688 111.109375 605.34375 111.601562 605.535156 112.078125 C 605.722656 112.558594 605.9375 113.03125 606.171875 113.488281 C 606.410156 113.949219 606.667969 114.394531 606.949219 114.828125 C 607.230469 115.261719 607.53125 115.683594 607.851562 116.085938 C 608.171875 116.488281 608.511719 116.878906 608.875 117.246094 Z M 608.875 117.246094 " fill-opacity="1" fill-rule="nonzero"/><path fill="#73ccd0" d="M 424.964844 194.90625 C 425.328125 195.273438 425.707031 195.621094 426.105469 195.949219 C 426.503906 196.277344 426.917969 196.585938 427.347656 196.875 C 427.773438 197.164062 428.214844 197.429688 428.671875 197.671875 C 429.125 197.917969 429.589844 198.140625 430.066406 198.335938 C 430.542969 198.535156 431.027344 198.710938 431.523438 198.863281 C 432.015625 199.011719 432.515625 199.136719 433.023438 199.238281 C 433.527344 199.339844 434.039062 199.417969 434.554688 199.46875 C 435.066406 199.519531 435.582031 199.542969 436.097656 199.542969 C 436.613281 199.542969 437.128906 199.519531 437.640625 199.46875 C 438.15625 199.417969 438.667969 199.339844 439.171875 199.238281 C 439.679688 199.136719 440.179688 199.011719 440.671875 198.863281 C 441.164062 198.710938 441.652344 198.535156 442.128906 198.335938 C 442.605469 198.140625 443.070312 197.917969 443.523438 197.671875 C 443.980469 197.429688 444.421875 197.164062 444.847656 196.875 C 445.277344 196.585938 445.691406 196.277344 446.089844 195.949219 C 446.488281 195.621094 446.867188 195.273438 447.230469 194.90625 L 641.871094 0 L 597.03125 0 L 424.964844 172.125 C 424.582031 172.492188 424.21875 172.878906 423.875 173.28125 C 423.53125 173.6875 423.207031 174.105469 422.90625 174.542969 C 422.605469 174.980469 422.328125 175.429688 422.070312 175.894531 C 421.816406 176.359375 421.582031 176.835938 421.375 177.324219 C 421.167969 177.8125 420.984375 178.308594 420.828125 178.816406 C 420.667969 179.324219 420.539062 179.835938 420.433594 180.355469 C 420.324219 180.875 420.246094 181.398438 420.191406 181.929688 C 420.140625 182.457031 420.113281 182.984375 420.113281 183.515625 C 420.113281 184.046875 420.140625 184.574219 420.191406 185.101562 C 420.246094 185.632812 420.324219 186.15625 420.433594 186.675781 C 420.539062 187.195312 420.667969 187.707031 420.828125 188.214844 C 420.984375 188.722656 421.167969 189.21875 421.375 189.707031 C 421.582031 190.195312 421.816406 190.671875 422.070312 191.136719 C 422.328125 191.601562 422.605469 192.050781 422.90625 192.488281 C 423.207031 192.925781 423.53125 193.34375 423.875 193.75 C 424.21875 194.152344 424.582031 194.539062 424.964844 194.90625 Z M 424.964844 194.90625 " fill-opacity="1" fill-rule="nonzero"/><path fill="#73ccd0" d="M 268.179688 235.40625 C 268.542969 235.773438 268.925781 236.121094 269.324219 236.449219 C 269.722656 236.777344 270.132812 237.085938 270.5625 237.375 C 270.992188 237.664062 271.433594 237.929688 271.886719 238.171875 C 272.34375 238.417969 272.808594 238.640625 273.285156 238.835938 C 273.761719 239.035156 274.246094 239.210938 274.738281 239.363281 C 275.234375 239.511719 275.734375 239.636719 276.238281 239.738281 C 276.746094 239.839844 277.253906 239.917969 277.769531 239.96875 C 278.28125 240.019531 278.796875 240.042969 279.3125 240.042969 C 279.832031 240.042969 280.34375 240.019531 280.859375 239.96875 C 281.371094 239.917969 281.882812 239.839844 282.390625 239.738281 C 282.894531 239.636719 283.394531 239.511719 283.890625 239.363281 C 284.382812 239.210938 284.867188 239.035156 285.34375 238.835938 C 285.820312 238.640625 286.285156 238.417969 286.742188 238.171875 C 287.195312 237.929688 287.636719 237.664062 288.066406 237.375 C 288.496094 237.085938 288.90625 236.777344 289.304688 236.449219 C 289.703125 236.121094 290.085938 235.773438 290.449219 235.40625 L 526.179688 0 L 481.542969 0 L 268.988281 212.625 C 268.59375 212.980469 268.21875 213.351562 267.859375 213.742188 C 267.5 214.136719 267.164062 214.542969 266.847656 214.96875 C 266.527344 215.394531 266.234375 215.835938 265.960938 216.292969 C 265.6875 216.746094 265.441406 217.214844 265.214844 217.695312 C 264.988281 218.175781 264.789062 218.667969 264.613281 219.167969 C 264.4375 219.667969 264.285156 220.179688 264.160156 220.695312 C 264.035156 221.210938 263.9375 221.730469 263.867188 222.257812 C 263.792969 222.785156 263.75 223.3125 263.730469 223.84375 C 263.710938 224.375 263.71875 224.902344 263.753906 225.433594 C 263.789062 225.964844 263.847656 226.492188 263.9375 227.015625 C 264.023438 227.539062 264.136719 228.054688 264.277344 228.566406 C 264.417969 229.078125 264.582031 229.582031 264.773438 230.078125 C 264.964844 230.574219 265.179688 231.058594 265.417969 231.535156 C 265.660156 232.007812 265.921875 232.46875 266.207031 232.914062 C 266.496094 233.363281 266.800781 233.792969 267.132812 234.210938 C 267.460938 234.625 267.8125 235.023438 268.179688 235.40625 Z M 268.179688 235.40625 " fill-opacity="1" fill-rule="nonzero"/><g clip-path="url(#a2ef258fb4)"><path fill="#73ccd0" d="M 258.058594 103.78125 C 258.421875 104.148438 258.804688 104.496094 259.203125 104.824219 C 259.597656 105.152344 260.011719 105.460938 260.441406 105.75 C 260.871094 106.039062 261.3125 106.304688 261.765625 106.546875 C 262.21875 106.792969 262.6875 107.015625 263.164062 107.210938 C 263.640625 107.410156 264.125 107.585938 264.617188 107.738281 C 265.113281 107.886719 265.613281 108.011719 266.117188 108.113281 C 266.625 108.214844 267.132812 108.292969 267.648438 108.34375 C 268.160156 108.394531 268.675781 108.417969 269.191406 108.417969 C 269.707031 108.417969 270.222656 108.394531 270.738281 108.34375 C 271.25 108.292969 271.761719 108.214844 272.265625 108.113281 C 272.773438 108.011719 273.273438 107.886719 273.765625 107.738281 C 274.261719 107.585938 274.746094 107.410156 275.222656 107.210938 C 275.699219 107.015625 276.164062 106.792969 276.621094 106.546875 C 277.074219 106.304688 277.515625 106.039062 277.945312 105.75 C 278.371094 105.460938 278.785156 105.152344 279.183594 104.824219 C 279.582031 104.496094 279.960938 104.148438 280.328125 103.78125 L 384.476562 0 L 339.839844 0 L 258.867188 81 C 258.472656 81.355469 258.09375 81.726562 257.738281 82.117188 C 257.378906 82.511719 257.042969 82.917969 256.722656 83.34375 C 256.40625 83.769531 256.113281 84.210938 255.839844 84.667969 C 255.566406 85.121094 255.316406 85.589844 255.09375 86.070312 C 254.867188 86.550781 254.667969 87.042969 254.492188 87.542969 C 254.316406 88.046875 254.164062 88.554688 254.039062 89.070312 C 253.914062 89.585938 253.816406 90.105469 253.746094 90.632812 C 253.671875 91.160156 253.628906 91.6875 253.609375 92.21875 C 253.589844 92.75 253.597656 93.277344 253.632812 93.808594 C 253.667969 94.339844 253.726562 94.867188 253.816406 95.390625 C 253.902344 95.914062 254.015625 96.429688 254.15625 96.941406 C 254.296875 97.453125 254.460938 97.957031 254.652344 98.453125 C 254.84375 98.949219 255.058594 99.433594 255.296875 99.910156 C 255.539062 100.382812 255.800781 100.84375 256.085938 101.289062 C 256.371094 101.738281 256.679688 102.167969 257.011719 102.585938 C 257.339844 103 257.6875 103.398438 258.058594 103.78125 Z M 258.058594 103.78125 " fill-opacity="1" fill-rule="nonzero"/></g></svg>