<svg xmlns="http://www.w3.org/2000/svg" xmlns:xlink="http://www.w3.org/1999/xlink" width="1080" zoomAndPan="magnify" viewBox="0 0 810 809.999993" height="1080" preserveAspectRatio="xMidYMid meet" version="1.0"><defs><clipPath id="fc633f7465"><path d="M 0 342.410156 L 810 342.410156 L 810 467.660156 L 0 467.660156 Z M 0 342.410156 " clip-rule="nonzero"/></clipPath></defs><g clip-path="url(#fc633f7465)"><path fill="#8cd0d4" d="M 63.582031 342.410156 L 746.417969 342.410156 C 748.464844 342.410156 750.511719 342.507812 752.550781 342.710938 C 754.59375 342.910156 756.617188 343.210938 758.628906 343.613281 C 760.636719 344.011719 762.625 344.511719 764.585938 345.105469 C 766.546875 345.699219 768.476562 346.390625 770.367188 347.175781 C 772.261719 347.960938 774.113281 348.835938 775.921875 349.804688 C 777.730469 350.769531 779.484375 351.824219 781.191406 352.964844 C 782.894531 354.101562 784.539062 355.324219 786.125 356.625 C 787.707031 357.925781 789.226562 359.300781 790.675781 360.75 C 792.125 362.203125 793.5 363.71875 794.800781 365.304688 C 796.101562 366.890625 797.320312 368.535156 798.457031 370.242188 C 799.597656 371.945312 800.648438 373.703125 801.617188 375.511719 C 802.582031 377.320312 803.457031 379.171875 804.242188 381.070312 C 805.027344 382.964844 805.714844 384.890625 806.3125 386.855469 C 806.90625 388.816406 807.402344 390.804688 807.804688 392.816406 C 808.203125 394.828125 808.503906 396.855469 808.707031 398.894531 C 808.90625 400.9375 809.007812 402.984375 809.007812 405.035156 C 809.007812 407.085938 808.90625 409.132812 808.707031 411.171875 C 808.503906 413.214844 808.203125 415.238281 807.804688 417.25 C 807.402344 419.261719 806.90625 421.25 806.3125 423.214844 C 805.714844 425.175781 805.027344 427.105469 804.242188 429 C 803.457031 430.894531 802.582031 432.746094 801.617188 434.554688 C 800.648438 436.363281 799.597656 438.121094 798.457031 439.828125 C 797.320312 441.53125 796.101562 443.175781 794.800781 444.761719 C 793.5 446.347656 792.125 447.867188 790.675781 449.316406 C 789.226562 450.765625 787.707031 452.144531 786.125 453.445312 C 784.539062 454.746094 782.894531 455.964844 781.191406 457.105469 C 779.484375 458.246094 777.730469 459.296875 775.921875 460.265625 C 774.113281 461.230469 772.261719 462.105469 770.367188 462.890625 C 768.476562 463.675781 766.546875 464.367188 764.585938 464.960938 C 762.625 465.558594 760.636719 466.054688 758.628906 466.457031 C 756.617188 466.855469 754.59375 467.15625 752.550781 467.359375 C 750.511719 467.558594 748.464844 467.660156 746.417969 467.660156 L 63.582031 467.660156 C 61.535156 467.660156 59.488281 467.558594 57.449219 467.359375 C 55.410156 467.15625 53.382812 466.855469 51.371094 466.457031 C 49.363281 466.054688 47.375 465.558594 45.414062 464.960938 C 43.453125 464.367188 41.523438 463.675781 39.632812 462.890625 C 37.738281 462.105469 35.886719 461.230469 34.078125 460.265625 C 32.269531 459.296875 30.515625 458.246094 28.808594 457.105469 C 27.105469 455.964844 25.460938 454.746094 23.875 453.445312 C 22.292969 452.144531 20.773438 450.765625 19.324219 449.316406 C 17.875 447.867188 16.5 446.347656 15.199219 444.761719 C 13.898438 443.175781 12.679688 441.53125 11.542969 439.828125 C 10.402344 438.121094 9.351562 436.363281 8.382812 434.554688 C 7.417969 432.746094 6.542969 430.894531 5.757812 429 C 4.972656 427.105469 4.285156 425.175781 3.6875 423.214844 C 3.09375 421.25 2.597656 419.261719 2.195312 417.25 C 1.796875 415.238281 1.496094 413.214844 1.292969 411.171875 C 1.09375 409.132812 0.992188 407.085938 0.992188 405.035156 C 0.992188 402.984375 1.09375 400.9375 1.292969 398.894531 C 1.496094 396.855469 1.796875 394.828125 2.195312 392.816406 C 2.597656 390.804688 3.09375 388.816406 3.6875 386.855469 C 4.285156 384.890625 4.972656 382.964844 5.757812 381.070312 C 6.542969 379.171875 7.417969 377.320312 8.382812 375.511719 C 9.351562 373.703125 10.402344 371.945312 11.542969 370.242188 C 12.679688 368.535156 13.898438 366.890625 15.199219 365.304688 C 16.5 363.71875 17.875 362.203125 19.324219 360.75 C 20.773438 359.300781 22.292969 357.925781 23.875 356.625 C 25.460938 355.324219 27.105469 354.101562 28.808594 352.964844 C 30.515625 351.824219 32.269531 350.769531 34.078125 349.804688 C 35.886719 348.835938 37.738281 347.960938 39.632812 347.175781 C 41.523438 346.390625 43.453125 345.699219 45.414062 345.105469 C 47.375 344.511719 49.363281 344.011719 51.371094 343.613281 C 53.382812 343.210938 55.410156 342.910156 57.449219 342.710938 C 59.488281 342.507812 61.535156 342.410156 63.582031 342.410156 Z M 63.582031 342.410156 " fill-opacity="1" fill-rule="nonzero"/></g></svg>